<svg id="Layer_1" data-name="Layer 1" xmlns="http://www.w3.org/2000/svg" viewBox="0 0 552.51 193.43"><defs><style>.cls-1{fill:#f7931e;}.cls-2{fill:#001044;}.cls-3{fill:none;}.cls-4{isolation:isolate;}</style></defs><title>H_Color</title><path class="cls-1" d="M103.44,190.31s-4.25,11,3.32,19.69h7.73c-2.3-2.4-8.49-9.7-6.81-17.23,0,0,2.35-7.54-2.35-14.11,0,0,1.47,5.25-1.17,8.21,0,0-7.45,7-1.81,19.25A20.77,20.77,0,0,1,103.44,190.31Z" transform="translate(-100.24 -164.72)"/><path class="cls-1" d="M149.35,191.79c-3.37-5.42,0-9.19,0-9.19a6.57,6.57,0,0,0-4,6.4c-1.76-.66-1.91-4.43-1.91-4.43-.44-5.74,2.64-7.55,2.64-7.55-1.17-.33-2.64,1-2.64,1a10.39,10.39,0,0,0-2.2,12c4.22,9.43-2.25,17.69-4.36,20h3.7c9.61-6,6.73-17.18,6.73-17.18a16.65,16.65,0,0,1-1.16,14.32C154.67,199,149.35,191.79,149.35,191.79Z" transform="translate(-100.24 -164.72)"/><path class="cls-1" d="M133.52,172.65c-3.17,5.11-6.09,13.26-6.47,26.09,0,0-9.43-23.57,14.26-33.88l.25-.14s-13.36-.6-20.56,15.61c.11-2.69.06-9.21-2.89-11.41,0,0,1.56,4.54-2.5,10.84,0,0-4.69,5.59-5,11.53,0,0-1.42,12.14,6.92,18.71H119c-1.71-1.69-10.59-11.65-2.33-28.81,0,0-6.34,21.31,7.34,28.81h5c9.61-6,6.73-17.18,6.73-17.18A16.64,16.64,0,0,1,132.45,210h.91a15.07,15.07,0,0,0,3.62-4.17h0c.24-.31,6.59-9.19-2.93-23.61A11.91,11.91,0,0,1,133.52,172.65Z" transform="translate(-100.24 -164.72)"/><path class="cls-2" d="M175.7,311.49l1-6.14.92-3.86q1.94-7.08,4.56-16.55t6-19.86l3.6-11.46q1.14-3.68,2.37-6.84t2.46-6.24c-2.38.74-4.83,1.56-7.32,2.45s-4.76,1.76-6.79,2.59l-4.89,2c-1.25.51-1.87.7-1.89.56a10.2,10.2,0,0,1-2.23,1.14,13.92,13.92,0,0,1-3.67,1.12,4,4,0,0,1-3.42-.77l-.46-.35a3.87,3.87,0,0,0-.7-1.35,4.08,4.08,0,0,1-.76-1.76q-.55-4.06,4.22-7l2.67-1.6q10.17-4.29,16.17-6.56t10.19-3.47q4.17-1.18,7.59-2l8.23-1.85c.27,0,1.28-.24,3-.62s3.63-.71,5.66-1l2-.28,7-.54a9.58,9.58,0,0,1,2.72.24,12.22,12.22,0,0,1,3.82,1.41,13.34,13.34,0,0,1,3.5,2.89,9,9,0,0,1,2,4.82q.39,2.8-3.27,3.3l-19.46,1.42L212.26,237a32,32,0,0,0-2.42,5c-.93,2.28-1.92,4.9-3,7.88s-2.12,6.21-3.23,9.68-2.25,6.95-3.43,10.43l-5.06,14.39-3.1,9.14-2.15,6.94a12.61,12.61,0,0,0-.74,2.9,5.71,5.71,0,0,1-.8,2.5l-.23,1.27a3.46,3.46,0,0,0-.48,1.83v.73a.81.81,0,0,0-.12.64l6.7-.92a1.22,1.22,0,0,1,.84.09l4.88-.67a7.31,7.31,0,0,1,2.42.29,12.29,12.29,0,0,1,3.29,1.41,13.75,13.75,0,0,1,3.16,2.68,7.53,7.53,0,0,1,1.8,4.09c.23,1.63-1.14,2.64-4.13,3.05-.81.11-2.65.3-5.51.55s-6.34.52-10.44.81l-1.22.17q-5.29.72-8.62,1.28c-2.23.38-4.14.74-5.75,1.1a39.52,39.52,0,0,0-4.38,1.22,47.55,47.55,0,0,0-4.51,1.86c-.64.36-1.64.85-3,1.45a14.5,14.5,0,0,1-3.87,1.15,6,6,0,0,1-2.77-.55c-1.17-.46-1.87-1.58-2.11-3.33a5,5,0,0,1,1.4-4.13,15.09,15.09,0,0,1,4.82-3.35l5.26-2.37,9.7-3.2Z" transform="translate(-100.24 -164.72)"/><path class="cls-2" d="M385.92,316a8.07,8.07,0,0,0-3-5.48,10,10,0,0,0-4.87-2.34l-4.2-.45-.61.08a.17.17,0,0,1-.22-.12.09.09,0,0,1,0-.05h-.2c-2.78,0-5.16-.05-7.16-.05s-4.06.06-6.17.22-4.5.37-7.15.67-6,.65-10.1,1.07l2.89-7.64a.45.45,0,0,1,.32.07.45.45,0,0,0,.32,0h.2a2.89,2.89,0,0,1,.83,0,5.61,5.61,0,0,0,.82,0,16.41,16.41,0,0,0,8.84-4.22,36,36,0,0,0,6.59-7.72,59.44,59.44,0,0,0,4.21-7.82q1.58-3.63,1.87-4.5a3.39,3.39,0,0,0,.16-1.89l-.14-1-.75-.93a3.8,3.8,0,0,0-1.91-.36,2.26,2.26,0,0,0-1.25.69,10,10,0,0,0-1,1.06q-4.74,10.59-7.84,13.81t-4.69,3.43c-1.09.15-1.69-.25-1.82-1.2l-.15-1a1.41,1.41,0,0,1,.28-1.08v-.2c0-.14,0-.21.07-.22s.09-.08.08-.22l2.69-10.5q2-6.27,4.31-13.11t4.68-13.37l2.27-6.11a4.63,4.63,0,0,0,.75-2.06,6.7,6.7,0,0,0,0-1.55q-.42-3-6.51-2.22a10.52,10.52,0,0,0-4.54,1.56,11.22,11.22,0,0,0-2.59,2.32,12.27,12.27,0,0,0-1.67,2.92l-.94,3.64a22,22,0,0,0-.9,2.51,25.88,25.88,0,0,0-.82,3.11l-2.42,8a112.19,112.19,0,0,1-4.41,11.2q-2.61,5.85-5.36,10.67a66.45,66.45,0,0,1-5.31,8.07c-1.71,2.16-3,3.31-4,3.44-.54.07-.86-.22-1-.9a34.12,34.12,0,0,1,.41-3.78,47,47,0,0,1,1.06-5.12l1.37-5.14c0-.14,0-.21.07-.22s.09-.08.07-.22v-.2l11.3-32.6a5.66,5.66,0,0,0,.75-3.62c-.28-2-2.44-2.78-6.51-2.22a10,10,0,0,0-4.44,1.54,17.64,17.64,0,0,0-2.69,2.34,10.07,10.07,0,0,0-1.87,2.94l-1,3.65a137.82,137.82,0,0,0-5.4,16.47q-1.45,5.64-2.58,10.3a12.34,12.34,0,0,0-.85.92c-3.18,6.93-5.81,11.46-7.85,13.61s-3.56,3.27-4.5,3.4a1.8,1.8,0,0,1-2.32-1.75,17.16,17.16,0,0,1,.82-6.12l.3-.86c.18-.71.33-1.35.46-1.93s.29-1.14.48-1.72l.4-1.71,11.23-32.79q1.56-3.72,2.81-7.41t2.46-7a116.84,116.84,0,0,0,27-6.6,66.42,66.42,0,0,0,18.15-10.25,35.09,35.09,0,0,0,9.9-12.32,23.13,23.13,0,0,0,2.08-12.8,9.68,9.68,0,0,0-2.28-5.28,10.37,10.37,0,0,0-4.43-2.91,19.27,19.27,0,0,0-5.73-1,35.84,35.84,0,0,0-5.95.29A47.45,47.45,0,0,0,340,191.94a66.13,66.13,0,0,0-13.61,10.14,77.79,77.79,0,0,0-10.24,12.16,136.53,136.53,0,0,0-7.25,12l-10,.75H291c-1.1,0-2.24.06-3.39.15s-2.29.21-3.37.36a19.41,19.41,0,0,0-9.42,3.77c-2.62,2-3.65,5.06-3.1,9.12a11.33,11.33,0,0,0,2.42,5.56c1.33,1.68,2.21,2.49,2.61,2.44.68-.09,1-.35.94-.75l.46-1.1a11.83,11.83,0,0,1,5.41-5.08,23.63,23.63,0,0,1,7.05-2.21,42.46,42.46,0,0,1,6.57-.39,41.12,41.12,0,0,0,6.56-.38l-5.9,18.81-.14-1c-.42-3.11-1.54-5.14-3.32-6.07a9.38,9.38,0,0,0-5.72-1,18.27,18.27,0,0,0-8.33,3.42,39.15,39.15,0,0,0-7.14,6.77,55.3,55.3,0,0,0-5.77,8.45,68.83,68.83,0,0,0-4,8.41,37.41,37.41,0,0,0-2.85,11,47.59,47.59,0,0,0-.27,7.16c-.6,1.17-1.18,2.21-1.72,3.15a38.33,38.33,0,0,1-3.54,5.13,12,12,0,0,1-2.76,2.56,5.57,5.57,0,0,1-2,.78,2,2,0,0,1-1.48-.21v-.61c-.13-.95.28-3,1.21-6.27s2.07-6.8,3.4-10.71,2.69-7.78,4.09-11.63,2.51-6.86,3.32-9a18.94,18.94,0,0,0,.92-3.85,12.78,12.78,0,0,0,0-2.9c-.43-3.11-1.63-5.06-3.6-5.82a10.58,10.58,0,0,0-5.18-.84,11.53,11.53,0,0,0-4.44,1.54,17.09,17.09,0,0,0-4.07,3.56A71.92,71.92,0,0,0,239.9,265c-1.63,2.29-3.52,5.11-5.68,8.43l1.63-4.77a31.58,31.58,0,0,1,1.42-3.92c.48-1,.83-1.76,1-2.21l.53-2.15a3.54,3.54,0,0,0,0-1.45c-.28-2-2.45-2.76-6.52-2.2-3.11.42-5.33,1.56-6.67,3.39a15.44,15.44,0,0,0-2.12,3.39v.21l-2.19,6.71q-2.45,7.79-4.36,15t-3.42,12.78a21.74,21.74,0,0,1-1.53,4.66q-1.32,3.18-.44,9.68a8.28,8.28,0,0,0,2.36,5.06,5.41,5.41,0,0,0,4.74,1.42,3.49,3.49,0,0,0,2.23-1.13,7.85,7.85,0,0,0,1.26-2,8.46,8.46,0,0,0,.62-2.37,10.9,10.9,0,0,1,.42-2.12l.73-5.28a18.85,18.85,0,0,1,.69-2.58c.17-.71.38-1.46.62-2.25s.44-1.54.62-2.26l2.1-7.32c1-1.66,2.22-3.65,3.63-6s2.86-4.73,4.39-7.22,3-4.86,4.5-7.14,2.75-4.09,3.81-5.48l1.22-1.61c.7-.94,1.32-1.43,1.86-1.5.28,0,.44.15.49.55a7.61,7.61,0,0,1,0,1.35,7.44,7.44,0,0,1-.91,2.5c-.33.6-1.12,2.57-2.39,5.92s-2.57,7.18-3.91,11.49-2.46,8.72-3.37,13.2a34.67,34.67,0,0,0-.74,11.17c.42,3.11,1.65,5.08,3.71,5.9a11.4,11.4,0,0,0,5.91.85,16.36,16.36,0,0,0,8.83-4.21,36.14,36.14,0,0,0,6.6-7.73l.18-.29a14.15,14.15,0,0,0,2.69,4.65q3.06,3.4,8.94,2.6t9.07-4a31.74,31.74,0,0,0,4.53-5.48l.7-.93.17,1.22q.5,3.66,2.74,4.91a10.57,10.57,0,0,0,3.92,1.42l1.27.24a2.89,2.89,0,0,1,.83,0,3.84,3.84,0,0,0,.83,0,16.36,16.36,0,0,0,8.83-4.21,36,36,0,0,0,6.18-7.09v.34a13.83,13.83,0,0,0,1.46,4.56,7,7,0,0,0,4,3.19l1.74.58a9,9,0,0,0,3.1,0c3.25-.45,6.49-2.54,9.69-6.29L330,305.24c-.84,2-1.72,4.09-2.68,6.16q-7.06,1.38-14.39,2.29a94,94,0,0,0-14.29,2.88l-4.79,1.28a7.79,7.79,0,0,0-5.06,2.35,4.76,4.76,0,0,0-1.36,3.7,3.5,3.5,0,0,0,.36,1.09,2.75,2.75,0,0,1,.33.88,38.22,38.22,0,0,0,6.74,8.4A48.25,48.25,0,0,0,303,340.5a29.57,29.57,0,0,0,10.9,4l2.52.28a11.09,11.09,0,0,0,2.7,0c3.24-.44,5.49-1.68,6.73-3.71a75,75,0,0,1,4.31-6.28v-.21l.17-.23h.2c1.23-2.1,2.33-4.18,3.28-6.24a35.89,35.89,0,0,1,1.79-3.56l2.53-5.72q7.37-.6,14.78-.88t14.25-.2a1.62,1.62,0,0,1,.62,0,.75.75,0,0,0,.42.05c5.84.3,9.77.59,11.82.87a20.79,20.79,0,0,0,3.86.3C385.48,318.75,386.17,317.75,385.92,316Zm-61.2-94.87a39.68,39.68,0,0,1,8.16-12.91,55.24,55.24,0,0,1,10.41-8.57,59.07,59.07,0,0,1,10.06-5.11q4.72-1.77,7.51-2.57l1.63-.23a16.48,16.48,0,0,1,5.73.26c1.92.43,3,1.85,3.38,4.29a15.83,15.83,0,0,1-.67,5.68l-1.12,2.43a23.09,23.09,0,0,1-5.05,6.17,40.32,40.32,0,0,1-10.94,7,71.29,71.29,0,0,1-14.82,4.6q-8,1.62-15.67,2.66ZM294.2,264.21a34.78,34.78,0,0,1-1.66,7.47q-3,9.74-5.48,16a66.57,66.57,0,0,1-4.65,9.85,20.78,20.78,0,0,1-4,5.09,6.78,6.78,0,0,1-3.38,1.71,3.27,3.27,0,0,1-1.88-.16l-.7-.53a7.24,7.24,0,0,1-.71-2.18,34.94,34.94,0,0,1,.49-7A61.07,61.07,0,0,1,275,284l1.79-5q2.93-7.25,5.23-11.69a55.27,55.27,0,0,1,4-6.86,15,15,0,0,1,3-3.3,5,5,0,0,1,2-1,6.83,6.83,0,0,1,2.09,1,3.39,3.39,0,0,1,1.28,2.51C294.42,260.73,294.34,262.27,294.2,264.21ZM321.29,323l-9.57,14.76a21.19,21.19,0,0,1-9.72-5.29q-3.94-3.81-5.89-6c.34-.46,1.42-.91,3.22-1.37s4-.93,6.53-1.41l8.17-1.54c2.89-.54,5.7-1,8.41-1.35Z" transform="translate(-100.24 -164.72)"/><path class="cls-2" d="M472,209.71c.53,1,1,1.76,1.31,2.36a5.19,5.19,0,0,1,.64,1.87c.23,1.67-1.26,2.73-4.46,3.16a29,29,0,0,0-3.61.1c-1.87.13-4.14.28-6.79.44s-5.5.4-8.53.68-5.89.61-8.58,1q-2.69.38-5.37.84t-5.34,1q-1.59,4.14-4.25,11.16t-5.64,15.26c2.93-.53,5.6-1,8-1.39s4.47-.71,6.14-.94l5.58-.76a23.44,23.44,0,0,1,2.51-.25,3.09,3.09,0,0,1,1.09.14c.51.22,1,.41,1.55.58a13.71,13.71,0,0,1,4.92,3,9,9,0,0,1,3.13,5.65q.36,2.69-3.1,3.16c-.64.09-1.6.19-2.89.3s-3.37.23-6.22.36v-.19c-2.69.37-5.52.63-8.51.77s-5.95.43-8.89.83l-7.69,1.1q-1.54,4.51-3,9c-.95,3-1.9,5.88-2.83,8.61l-2.55,9.95a.49.49,0,0,0-.14.41l-.26,1-.65,3.81a22.35,22.35,0,0,1-.81,4.13,4.06,4.06,0,0,1-2.72,3c-.25,0-.37.12-.35.25a5.39,5.39,0,0,1-4.57-1.14,7,7,0,0,1-2.07-4.41,5.77,5.77,0,0,1,0-1.76l-.22-.17a34.8,34.8,0,0,0-2.83-9.89,48.24,48.24,0,0,0-4.51-7.9,38,38,0,0,0-4.67-5.53c-1.5-1.43-2.62-2.41-3.35-3l-.21-.16a4,4,0,0,1-1.55-2.73c-.21-1.54.67-3,2.64-4.28a34.6,34.6,0,0,1,7.35-3.55q4.38-1.58,9.3-2.84t8.52-2.15q2.36-7.17,4.56-13.94c1.46-4.51,2.91-8.75,4.32-12.74a6.21,6.21,0,0,1-2.24.8c-1,.21-1.84.35-2.48.44l-.39,0a23.86,23.86,0,0,0-3.17,1.12,13.49,13.49,0,0,1-3.59,1,5.78,5.78,0,0,1-3.1-.45c-1-.45-1.67-1.5-1.9-3.17-.41-2.95,1.72-5.06,6.37-6.36l1.3-.57q7.47-2.58,14.66-4.45t13.56-3.23q6.38-1.36,11.54-2.27t8.43-1.35l4.42-.6h2.75a11.64,11.64,0,0,1,4.38.58A9.17,9.17,0,0,1,472,209.71Zm-72.95,70.7c.69-2.57,1.44-5.39,2.27-8.44S403,265.7,404,262.3l-9.15,1.84a12.92,12.92,0,0,1-3,.81l-3,.81a38.14,38.14,0,0,1,6.05,7.69,53,53,0,0,1,3.93,8Z" transform="translate(-100.24 -164.72)"/><path class="cls-2" d="M477.59,226a23.76,23.76,0,0,1,2.37,1.31,7.15,7.15,0,0,0,.59-1.13,8.06,8.06,0,0,1,.58-1.78C479.79,225,478.61,225.48,477.59,226Z" transform="translate(-100.24 -164.72)"/><path class="cls-2" d="M614.77,222.47a7.21,7.21,0,0,0-4.34-6,14.38,14.38,0,0,0-8.18-1.13,16.73,16.73,0,0,0-8.5,3.7,10,10,0,0,0-3.62,5.79A18.28,18.28,0,0,0,590,230a1.23,1.23,0,0,0,.18.56,1.22,1.22,0,0,1,.17.56q.06.39,2.61,6.21a57.66,57.66,0,0,1,3.85,15.23,33.52,33.52,0,0,1,0,10.58c-.56,3.08-1.87,4.77-3.92,5a5.75,5.75,0,0,1-1.42-.39c-.82-.28-1.35-1.25-1.57-2.92a15.66,15.66,0,0,1,.35-5.24c.43-2.08.78-3.66,1-4.74,1.24-2.39,2-3.93,2.31-4.63a3.83,3.83,0,0,0,.31-2l-.11-.78-.76-1a17.14,17.14,0,0,0-3.78-1.83l-1.62-.37a1.94,1.94,0,0,1-.68,0,2.66,2.66,0,0,0-.69,0,8.27,8.27,0,0,0-4.52,2A12,12,0,0,0,578.8,250a18.14,18.14,0,0,0-1.49,4.81,16.78,16.78,0,0,0-.23,3h0a61.88,61.88,0,0,1-5.51,7.92A41.74,41.74,0,0,1,567,270a16.38,16.38,0,0,1-8.45,3.41,9.61,9.61,0,0,1-4.82-.22c-1-.44-1.69-1.56-1.93-3.36a31.44,31.44,0,0,1,.17-5.9c1-.52,2.47-1.44,4.52-2.77a48.19,48.19,0,0,0,6.61-5.31,63.69,63.69,0,0,0,7.13-8,46.39,46.39,0,0,0,6-10.91,22,22,0,0,0,1.45-5.88,18.16,18.16,0,0,0,0-3.9c-.4-3-1.6-4.78-3.58-5.49a12,12,0,0,0-5.68-.69,18.87,18.87,0,0,0-10,4.9,46.08,46.08,0,0,0-6.13,6.81,62.71,62.71,0,0,0-6.42,11,47.07,47.07,0,0,0-4.45,12.55c-.22,1.2-.38,2.37-.49,3.49h0l-.08.1a87.65,87.65,0,0,1-4.08,8.1,36,36,0,0,1-3.35,4.87,11.28,11.28,0,0,1-2.61,2.41A5,5,0,0,1,529,276a1.81,1.81,0,0,1-1.4-.2v-.19l0-.39q-.18-1.34,1.14-5.93t3.22-10.13q1.88-5.55,3.88-11c1.33-3.64,2.36-6.5,3.13-8.56a17.55,17.55,0,0,0,.87-3.64,11.42,11.42,0,0,0,0-2.74c-.4-3-1.54-4.78-3.4-5.51a9.94,9.94,0,0,0-4.9-.8,10.9,10.9,0,0,0-4.21,1.46,16.71,16.71,0,0,0-3.85,3.36,68,68,0,0,0-4.24,5.49c-1.54,2.16-3.32,4.82-5.37,8l1.54-4.51a26.9,26.9,0,0,1,1.34-3.71c.46-1,.79-1.68,1-2.09l.51-2a4,4,0,0,0,0-1.38c-.27-1.92-2.32-2.62-6.17-2.09-2.94.4-5.05,1.47-6.31,3.22a13.18,13.18,0,0,0-2,3.21V236l-2.06,6.35q-2.33,7.38-4.13,14.18t-3.24,12.1a19.85,19.85,0,0,1-1.37,4.2c-.36.62-.71,1.19-1,1.7a35.13,35.13,0,0,1-3.74,4.93,4.17,4.17,0,0,1-4.27,1.72.78.78,0,0,1-.68-.69,11.5,11.5,0,0,1,0-1.66,10,10,0,0,1,.31-2.1,18.54,18.54,0,0,1,.67-2.93c.31-1,.6-2,.86-3s.69-2.11,1-3.06c1.37-4.36,2.83-8.88,4.41-13.53s3.18-9.25,4.78-13.77,3.16-8.83,4.7-12.89,2.86-7.67,4-10.83q7.19-2,14.79-3.59,7.39-1.8,18.68-3.73l4.61-.64,8.56-.49q3.49-.18,4.65-.33c2.08,0,3.22-.51,3.42-1.45s-.28-2.32-1.44-4.11a9.06,9.06,0,0,0-2.28-2.34,7.69,7.69,0,0,0-2.31-1.15,8.24,8.24,0,0,0-2.6-.43l-4.09.17-1,.14a32.48,32.48,0,0,0-5,.68c-1.65.35-2.61.55-2.86.59q-3.82.72-11.6,2.46t-18,4.53l.16-.22c1-2.48,1-4.12,0-4.9s-2.77-1-5.46-.62a9.36,9.36,0,0,0-4.11,1.45,15.16,15.16,0,0,0-2.64,2.22,8.53,8.53,0,0,0-1.74,3l-1.62,3.94c-2.49.87-5.05,1.76-7.65,2.71s-5.16,1.92-7.64,2.9c-.49.21-1.09.42-1.77.64a15.47,15.47,0,0,0-2.49,1.13,7.25,7.25,0,0,0-2,1.06q-4.68,2.63-2.93,6.19l-.49,1.72a7.2,7.2,0,0,1-.33,1.12.82.82,0,0,0,0,.49c.16,1.16,1,1.69,2.58,1.61.65,0,1.27.05,1.86,0s1.1-.06,1.65-.13a13.13,13.13,0,0,0,2.23-.52c1.08.64,2.27,1.37,3.57,2.17a30.21,30.21,0,0,1,4.95,3.93q-3,9.21-5.59,18.07l-4.35,15.39c-.18.67-.32,1.25-.45,1.73s-.29,1-.47,1.62a18.3,18.3,0,0,0-.46,2.32v.28a24.87,24.87,0,0,1-3.45,5c-2,2-3.46,3.11-4.35,3.24a2,2,0,0,1-1.71-.26,1.74,1.74,0,0,1-.4-.83,6.74,6.74,0,0,1,0-1.27,2.54,2.54,0,0,1,.41-1.33l2.57-9.76q1.26-3.69,2.46-7.78c.81-2.72,1.67-5.45,2.6-8.18s1.88-5.42,2.83-8,1.86-5,2.75-7l.7-2.06a3.17,3.17,0,0,0,0-1.37c-.25-1.8-2.29-2.43-6.14-1.9-3.46.48-5.83,2-7.09,4.69a42.09,42.09,0,0,0-2.92,8q-2.31,7.36-4.12,14.18t-3.24,12.09c-.6,2.3-1.22,4.71-1.86,7.2a17.93,17.93,0,0,0-.56,6.64q.53,3.86,3.11,4.77a30.92,30.92,0,0,0,3.77,1.15,1.16,1.16,0,0,0,.8.08l.38-.05a3.48,3.48,0,0,1,.79,0,3.39,3.39,0,0,0,.78,0,15.37,15.37,0,0,0,8.46-4,35.86,35.86,0,0,0,3.31-3.44,4.46,4.46,0,0,0,1.94,2.43,11.21,11.21,0,0,0,4,1.6,1.17,1.17,0,0,0,.8.09l.38,0a14.35,14.35,0,0,0,9-3.39,35.84,35.84,0,0,0,4.08-4,7.43,7.43,0,0,0,2.1,4.11,5.17,5.17,0,0,0,4.5,1.33,3.22,3.22,0,0,0,2.1-1.07,7.21,7.21,0,0,0,1.2-1.92,7.55,7.55,0,0,0,.58-2.24,10.44,10.44,0,0,1,.41-2l.69-5a17.17,17.17,0,0,1,.64-2.44c.17-.67.37-1.39.59-2.14s.42-1.46.59-2.13l2-6.93,3.43-5.66c1.33-2.21,2.71-4.49,4.16-6.84s2.85-4.6,4.26-6.75,2.6-3.89,3.6-5.2l1.16-1.53a3.16,3.16,0,0,1,1.76-1.41c.26,0,.41.14.47.52a9.11,9.11,0,0,1,0,1.28,6.89,6.89,0,0,1-.86,2.37c-.31.56-1.07,2.43-2.27,5.59s-2.42,6.8-3.69,10.89a128.4,128.4,0,0,0-3.19,12.49,32.67,32.67,0,0,0-.71,10.57q.61,4.42,3.51,5.58a10.62,10.62,0,0,0,5.59.81,15.59,15.59,0,0,0,8.37-4,33.62,33.62,0,0,0,6.24-7.32c.76-1.21,1.46-2.4,2.08-3.54a14,14,0,0,0,4.78,7.11c3.07,2.39,7,3.25,11.71,2.61.64-.09,1.31-.22,2-.37s1.42-.37,2.17-.6h.19a20.62,20.62,0,0,0,8-4.81,52.61,52.61,0,0,0,6.36-7.14c.55-.73,1.06-1.45,1.53-2.15a17.58,17.58,0,0,0,4.71,7c3.28,2.94,7.41,4.08,12.41,3.39a17.94,17.94,0,0,0,6.08-2.1,16.8,16.8,0,0,0,5.52-4.78A22.47,22.47,0,0,0,610.7,261a24.1,24.1,0,0,0,.49-10,41.54,41.54,0,0,0-1.68-7.3c-.79-2.45-1.62-4.71-2.5-6.81s-1.65-4-2.33-5.56a36.73,36.73,0,0,1-1.36-3.53,5.89,5.89,0,0,1-.43-1.71,6.35,6.35,0,0,1,.55-3.79,3,3,0,0,1,2.19-1.87c1.28-.17,2,.58,2.27,2.23a9.24,9.24,0,0,1,0,2.35,8.07,8.07,0,0,0,0,1.77q.15,1.16,1.92,1.2l1.6.07a7.89,7.89,0,0,0,2-1.44A4.26,4.26,0,0,0,614.77,222.47Zm-57.45,25.19q1.93-4.47,4.21-8.6a48,48,0,0,1,4.7-7.1q2.43-3,4.55-3.28a.82.82,0,0,1,.61.12.37.37,0,0,0,.13.27.41.41,0,0,1,.13.28,11.93,11.93,0,0,1-.73,3.92,34.35,34.35,0,0,1-2.9,6.67,55.09,55.09,0,0,1-5.48,7.9,40.3,40.3,0,0,1-8.46,7.61Q555.39,252.15,557.32,247.66ZM481.41,228.2c-.48-.33-1-.63-1.45-.91a23.76,23.76,0,0,0-2.37-1.31c1-.5,2.2-1,3.54-1.6q3.06-1.29,7.21-2.81c-.45,1.5-.95,3-1.52,4.62s-1.06,3.18-1.49,4.8C484,230,482.71,229.07,481.41,228.2Z" transform="translate(-100.24 -164.72)"/><path class="cls-2" d="M631.62,213.89a16.62,16.62,0,0,1,8.5-3.71,14.46,14.46,0,0,1,8.18,1.13,7.21,7.21,0,0,1,4.34,6,4.24,4.24,0,0,1-1.3,4.09,7.59,7.59,0,0,1-2.05,1.46,9.25,9.25,0,0,0-1.58-.08c-1.18,0-1.82-.44-1.92-1.21a7.49,7.49,0,0,1,.05-1.77,10.17,10.17,0,0,0,0-2.34c-.23-1.67-1-2.41-2.27-2.24a3,3,0,0,0-2.19,1.87,6.39,6.39,0,0,0-.56,3.8,5.9,5.9,0,0,0,.43,1.7c.24.75.69,1.93,1.37,3.53s1.45,3.46,2.33,5.56,1.7,4.37,2.5,6.81a41.54,41.54,0,0,1,1.68,7.3,24.1,24.1,0,0,1-.49,10,22.52,22.52,0,0,1-3.58,7.45,17,17,0,0,1-5.52,4.77,17.94,17.94,0,0,1-6.08,2.1q-7.5,1-12.41-3.39a18.89,18.89,0,0,1-5.94-11.91,16.84,16.84,0,0,1,.09-5.11,17.22,17.22,0,0,1,1.49-4.81,12.36,12.36,0,0,1,2.91-3.82,8.31,8.31,0,0,1,4.52-2,2,2,0,0,1,.69,0,1.94,1.94,0,0,0,.68,0l1.62.36a16.46,16.46,0,0,1,3.77,1.84l.74,1.07.11.77a3.73,3.73,0,0,1-.32,2c-.29.67-1,2.21-2.3,4.62-.25,1.08-.59,2.66-1,4.75a15.87,15.87,0,0,0-.36,5.23c.23,1.67.76,2.64,1.58,2.92a5.75,5.75,0,0,0,1.42.39c2-.28,3.36-2,3.91-5a33.46,33.46,0,0,0,0-10.57,58.12,58.12,0,0,0-3.85-15.24q-2.55-5.82-2.61-6.2a1.26,1.26,0,0,0-.17-.57,1.23,1.23,0,0,1-.18-.56,18.3,18.3,0,0,1,.18-5.12A9.94,9.94,0,0,1,631.62,213.89Z" transform="translate(-100.24 -164.72)"/><line class="cls-3" x1="464.47" y1="113.1" x2="468" y2="112.22"/><g class="cls-4"><path class="cls-1" d="M456.64,349.07l-5.08-27.9.14,27.93-3.54,0L448,313.53l5.4,0L458,343.66l3.94-30.21,5.42,0L467.5,349,464,349l-.15-28-4.79,28Z" transform="translate(-100.24 -164.72)"/><path class="cls-1" d="M485.5,340.88l-1,8.05-3.73,0,1.43-11.05,3.15-20.45,5.49,0,3.36,20.38,1.55,11.07-3.74,0-1.05-8Zm5.25-1.83L488.12,319l-2.44,20.1Z" transform="translate(-100.24 -164.72)"/><path class="cls-1" d="M521.44,332.14l.07,13.85c0,2.07-2.06,3.12-6.23,3.16s-6.21-1-6.22-3.09l-.14-25.9q0-3.12,6.2-3.15t6.25,3.09l0,7.24-3.7,0,0-7.24c0-.89-.84-1.33-2.51-1.32h0c-1.66,0-2.5.46-2.49,1.34l.13,25.9c0,.88.85,1.32,2.51,1.31s2.54-.46,2.53-1.34L517.74,334h-2.08v-1.79Z" transform="translate(-100.24 -164.72)"/><path class="cls-1" d="M539.2,340.6l-1,8-3.74,0,1.44-11.05,3.14-20.45,5.5,0,3.35,20.38,1.56,11.07-3.74,0-1-8Zm5.25-1.83-2.64-20.07-2.43,20.1Z" transform="translate(-100.24 -164.72)"/><path class="cls-1" d="M571.94,318.12l-6.25,28.6,6.66,0v1.78l-10.89.06V347.4l6.25-28.6-6.18,0v-1.78l10.41-.05Z" transform="translate(-100.24 -164.72)"/><path class="cls-1" d="M586,316.93l3.7,0,.17,31.47-3.71,0Z" transform="translate(-100.24 -164.72)"/><path class="cls-1" d="M613.7,316.78l3.51,0,.17,31.47H615l-6.85-22.44.12,22.48-3.35,0-.16-31.47h2.4l6.65,22.5Z" transform="translate(-100.24 -164.72)"/><path class="cls-1" d="M632.13,316.69l11.12-.06v1.78l-7.41,0,.07,13,6.4,0v1.8l-6.4,0,.07,13.08,7.41,0v1.78l-11.12,0Z" transform="translate(-100.24 -164.72)"/></g><path class="cls-2" d="M123.56,358.15s3.13.3,3.53-35.51L123.32,319l-3.72,3.6S120.45,356.43,123.56,358.15Z" transform="translate(-100.24 -164.72)"/><rect class="cls-2" x="104.44" y="212.78" width="38.95" height="4.36" transform="translate(-101.55 -163.96) rotate(-0.35)"/><path class="cls-2" d="M142.34,219c-2.77,1.13-7.87,3-9.26,5.82a2.94,2.94,0,0,1-.3,1.17c-3.15,7-4.38,76.68-4.38,76.68l-5.14-8.78-4.61,10.25c-1.53-59.61-4.77-78.15-4.77-78.15h0c-1.63-4.92-8.75-6.81-8.75-6.81Z" transform="translate(-100.24 -164.72)"/><polygon class="cls-1" points="23.23 133.6 26.18 142.67 35.72 142.67 28 148.28 30.95 157.35 23.23 151.74 15.51 157.35 18.46 148.28 10.75 142.67 20.28 142.67 23.23 133.6"/></svg>