<svg id="Layer_1" data-name="Layer 1" xmlns="http://www.w3.org/2000/svg" viewBox="0 0 72.49 114.9"><defs><style>.cls-1{fill:#fff;}.cls-2{fill:none;stroke:#001044;stroke-miterlimit:10;}</style></defs><title>Menu Icon</title><path class="cls-1" d="M30.11,61.87S24.05,77.52,34.85,90h11c-3.27-3.42-12.11-13.84-9.71-24.58,0,0,3.35-10.77-3.34-20.13,0,0,2.09,7.49-1.68,11.7,0,0-10.63,10-2.58,27.46A29.57,29.57,0,0,1,30.11,61.87Z" transform="translate(-25.51 -25.36)"/><path class="cls-1" d="M95.61,64c-4.82-7.73,0-13.11,0-13.11A9.35,9.35,0,0,0,90,60c-2.52-.94-2.72-6.32-2.72-6.32C86.61,45.49,91,42.91,91,42.91c-1.67-.47-3.76,1.41-3.76,1.41A14.82,14.82,0,0,0,84.1,61.4c6,13.45-3.22,25.23-6.23,28.56h5.29c13.7-8.58,9.6-24.51,9.6-24.51,3.13,9,.9,16-1.66,20.42C103.2,74.26,95.61,64,95.61,64Z" transform="translate(-25.51 -25.36)"/><path class="cls-1" d="M73,36.68C68.5,44,64.33,55.6,63.8,73.89c0,0-13.46-33.62,20.33-48.33l.36-.2s-19-.85-29.33,22.26c.16-3.83.09-13.13-4.12-16.27,0,0,2.23,6.48-3.57,15.46,0,0-6.69,8-7.14,16.46,0,0-2,17.32,9.88,26.69h2c-2.44-2.42-15.1-16.63-3.32-41.1,0,0-9,30.39,10.47,41.1h7.16c13.71-8.58,9.61-24.51,9.61-24.51C80.57,78.21,74.28,86.91,71.5,90h1.29A21.23,21.23,0,0,0,78,84v0c.33-.45,9.4-13.11-4.17-33.68A17,17,0,0,1,73,36.68Z" transform="translate(-25.51 -25.36)"/><rect class="cls-1" x="25.51" y="95.13" width="72.5" height="8.12" rx="4.06" ry="4.06" transform="translate(-26.11 -24.98) rotate(-0.35)"/><rect class="cls-1" x="36.62" y="107.39" width="50.27" height="8.12" rx="4.06" ry="4.06" transform="translate(-26.19 -24.98) rotate(-0.35)"/><rect class="cls-1" x="47.13" y="119.75" width="29.25" height="8.12" rx="4.06" ry="4.06" transform="translate(-26.26 -24.98) rotate(-0.35)"/><rect class="cls-1" x="55.48" y="132.13" width="11.75" height="8.12" rx="4.06" ry="4.06" transform="translate(-26.34 -24.98) rotate(-0.35)"/><path class="cls-2" d="M41.81,226.55" transform="translate(-25.51 -25.36)"/></svg>