<svg xmlns="http://www.w3.org/2000/svg" viewBox="0 0 500 500"><defs><style>.cls-1{fill:#001044;}.cls-2{fill:#f7931e;}</style></defs><title>Final4</title><g id="Layer_2" data-name="Layer 2"><path class="cls-1" d="M142.76,286.72a98.22,98.22,0,0,1-3.59-26.33c0-54.71,44.87-99.06,100.22-99.06a100.77,100.77,0,0,1,41.72,9l4.87-4.1a106.6,106.6,0,0,0-46.59-10.64c-58.56,0-106,46.93-106,104.82a103.74,103.74,0,0,0,4.54,30.43Z"/><path class="cls-2" d="M135.17,293.31a106.7,106.7,0,0,1-5-32.43c0-59.74,49.06-108.17,109.58-108.17a110.26,110.26,0,0,1,49,11.4l2.7-2.27A113.17,113.17,0,0,0,240,149.57c-62.12,0-112.49,49.72-112.49,111.05A109.57,109.57,0,0,0,133,295.1Z"/><path class="cls-2" d="M323.12,188.28l-2.43,2.18a106.91,106.91,0,0,1,26.41,70.42c0,59.75-49.06,108.18-109.58,108.18a109.94,109.94,0,0,1-79.21-33.44l-1.88,1.69a112.88,112.88,0,0,0,81.36,34.36c62.12,0,112.49-49.72,112.49-111A109.78,109.78,0,0,0,323.12,188.28Z"/><path class="cls-1" d="M318.07,192.61l-4.32,3.87a98,98,0,0,1,23.66,63.91c0,54.71-44.87,99.05-100.22,99.05a100.48,100.48,0,0,1-72-30.15l-4.33,3.87a106.36,106.36,0,0,0,76.32,32c58.57,0,106.05-46.92,106.05-104.81A103.64,103.64,0,0,0,318.07,192.61Z"/><path class="cls-1" d="M184.16,251.81l.7-4.18.63-2.63q1.31-4.83,3.11-11.28t4.07-13.54l2.45-7.81q.78-2.51,1.62-4.66c.55-1.44,1.11-2.86,1.67-4.25q-2.43.75-5,1.67t-4.62,1.76l-3.34,1.37c-.85.36-1.27.48-1.29.39a6.83,6.83,0,0,1-1.51.77,9.54,9.54,0,0,1-2.51.77,2.76,2.76,0,0,1-2.33-.53l-.31-.24a2.75,2.75,0,0,0-.48-.92,3.06,3.06,0,0,1-.52-1.2q-.37-2.76,2.88-4.76l1.82-1.1q6.93-2.92,11-4.47t6.94-2.36q2.85-.81,5.17-1.34L210,192c.18,0,.87-.16,2.06-.42s2.47-.48,3.86-.67l1.38-.19,4.74-.37a7.14,7.14,0,0,1,1.86.16,8.61,8.61,0,0,1,2.6,1,9.12,9.12,0,0,1,2.39,2,6.07,6.07,0,0,1,1.36,3.28c.18,1.28-.57,2-2.23,2.25q-.14,0-13.26,1L209.08,201a21.46,21.46,0,0,0-1.65,3.41c-.63,1.55-1.31,3.34-2,5.37s-1.45,4.23-2.2,6.59-1.54,4.74-2.34,7.11l-3.46,9.81-2.1,6.23-1.47,4.73a8.28,8.28,0,0,0-.51,2,3.91,3.91,0,0,1-.54,1.7l-.16.87a2.31,2.31,0,0,0-.32,1.25c0,.42,0,.54,0,.35l0,.14a.61.61,0,0,0-.08.44l4.57-.63a.84.84,0,0,1,.57.06l3.33-.45a4.84,4.84,0,0,1,1.64.2,8.28,8.28,0,0,1,2.25,1,8.86,8.86,0,0,1,2.15,1.82,5.13,5.13,0,0,1,1.23,2.79c.16,1.11-.79,1.8-2.81,2.08-.56.08-1.81.2-3.76.37s-4.32.36-7.12.56l-.83.11q-3.6.5-5.87.88c-1.52.25-2.83.5-3.92.74a26.44,26.44,0,0,0-3,.84c-.9.31-1.92.73-3.07,1.26-.44.25-1.12.58-2,1a10.18,10.18,0,0,1-2.64.79A4.12,4.12,0,0,1,171,264a2.56,2.56,0,0,1-1.44-2.27,3.36,3.36,0,0,1,1-2.81,10.25,10.25,0,0,1,3.28-2.29l3.59-1.62,6.61-2.17Z"/><path class="cls-1" d="M327.45,254.89a5.52,5.52,0,0,0-2.06-3.74,7,7,0,0,0-3.32-1.59l-2.87-.31-.41.06a.13.13,0,0,1-.16-.12l-.13,0c-1.89,0-3.52,0-4.88,0s-2.77,0-4.21.15-3.06.25-4.87.46l-6.88.73,2-5.21a.3.3,0,0,1,.22,0,.3.3,0,0,0,.22,0l.14,0a2.62,2.62,0,0,1,.56,0,2.1,2.1,0,0,0,.56,0,11.19,11.19,0,0,0,6-2.87,24.6,24.6,0,0,0,4.49-5.27,40.1,40.1,0,0,0,2.87-5.33c.71-1.65,1.14-2.67,1.27-3.06a2.33,2.33,0,0,0,.11-1.29l-.09-.69-.51-.64a2.58,2.58,0,0,0-1.31-.24,1.59,1.59,0,0,0-.85.47,6.07,6.07,0,0,0-.68.73q-3.24,7.22-5.34,9.4c-1.4,1.47-2.46,2.24-3.2,2.34s-1.15-.17-1.24-.81c0-.19-.06-.42-.1-.69a.93.93,0,0,1,.19-.74l0-.13c0-.1,0-.15.05-.15s.06-.06.05-.15l1.83-7.16q1.39-4.27,2.94-8.93T311,211l1.55-4.16a3.2,3.2,0,0,0,.51-1.41,4.55,4.55,0,0,0,0-1q-.29-2.09-4.44-1.51a7.25,7.25,0,0,0-3.1,1.05,7.78,7.78,0,0,0-1.76,1.59,8.77,8.77,0,0,0-1.13,2L302,210a14,14,0,0,0-.61,1.71,17.49,17.49,0,0,0-.56,2.12l-1.65,5.44a74.07,74.07,0,0,1-3,7.67q-1.79,4-3.66,7.27a45.11,45.11,0,0,1-3.61,5.51c-1.17,1.47-2.07,2.25-2.72,2.34-.36.05-.58-.15-.64-.61a20.49,20.49,0,0,1,.28-2.58,30.07,30.07,0,0,1,.72-3.49l.93-3.5c0-.1,0-.15.05-.15s.06-.06,0-.15l0-.14,7.68-22.21a3.92,3.92,0,0,0,.51-2.46c-.2-1.39-1.67-1.89-4.44-1.52a6.61,6.61,0,0,0-3,1.06,11.36,11.36,0,0,0-1.83,1.59,6.88,6.88,0,0,0-1.28,2l-.64,2.48a90.38,90.38,0,0,0-3.68,11.23c-.67,2.56-1.25,4.9-1.76,7a5.15,5.15,0,0,0-.58.63q-3.25,7.08-5.36,9.27c-1.4,1.46-2.42,2.23-3.06,2.32a1.24,1.24,0,0,1-1.58-1.2,11.48,11.48,0,0,1,.56-4.16l.2-.59c.12-.49.23-.92.31-1.32s.2-.77.33-1.17l.27-1.16,7.66-22.35q1.06-2.53,1.91-5.06c.57-1.67,1.13-3.26,1.68-4.74a79.8,79.8,0,0,0,18.43-4.5,44.9,44.9,0,0,0,12.36-7,24,24,0,0,0,6.75-8.4,15.72,15.72,0,0,0,1.42-8.73,6.61,6.61,0,0,0-1.56-3.6,7.05,7.05,0,0,0-3-2,13.39,13.39,0,0,0-3.91-.66,24.5,24.5,0,0,0-4.06.2,32.2,32.2,0,0,0-11.74,3.87,45.1,45.1,0,0,0-9.28,6.91,52.5,52.5,0,0,0-7,8.29,91.87,91.87,0,0,0-4.95,8.15l-6.84.51-5.35,0c-.75,0-1.52.05-2.31.11s-1.56.14-2.3.24a13.24,13.24,0,0,0-6.42,2.58c-1.79,1.36-2.49,3.44-2.11,6.21a7.67,7.67,0,0,0,1.65,3.79c.91,1.15,1.5,1.7,1.78,1.66.46-.06.67-.23.64-.51l.31-.75a8.1,8.1,0,0,1,3.69-3.46,16.13,16.13,0,0,1,4.8-1.51,29.06,29.06,0,0,1,4.48-.26,29.13,29.13,0,0,0,4.48-.26l-4,12.82-.1-.69c-.28-2.12-1-3.5-2.25-4.13a6.41,6.41,0,0,0-3.9-.67,12.44,12.44,0,0,0-5.68,2.33,26.75,26.75,0,0,0-4.87,4.62,38,38,0,0,0-3.93,5.75,48,48,0,0,0-2.74,5.74,25.52,25.52,0,0,0-1.94,7.46,32.61,32.61,0,0,0-.19,4.88c-.41.8-.8,1.51-1.17,2.15a25.45,25.45,0,0,1-2.42,3.5,8.25,8.25,0,0,1-1.87,1.74,4,4,0,0,1-1.34.53,1.34,1.34,0,0,1-1-.14l0-.14,0-.28a13.77,13.77,0,0,1,.82-4.27q1-3.31,2.32-7.3t2.79-7.93l2.26-6.16a12.51,12.51,0,0,0,.62-2.62,8.81,8.81,0,0,0,0-2c-.3-2.12-1.11-3.45-2.45-4a7.19,7.19,0,0,0-3.54-.57,7.82,7.82,0,0,0-3,1.05,11.82,11.82,0,0,0-2.78,2.43,48,48,0,0,0-3.05,3.94c-1.11,1.56-2.4,3.48-3.87,5.74l1.11-3.25a20.19,20.19,0,0,1,1-2.67l.71-1.51.36-1.46a2.38,2.38,0,0,0,0-1q-.28-2.07-4.44-1.5a6.4,6.4,0,0,0-4.55,2.31,10.7,10.7,0,0,0-1.44,2.31v.15l-1.48,4.57c-1.12,3.54-2.1,6.94-3,10.21s-1.65,6.17-2.34,8.71a15.24,15.24,0,0,1-1,3.18q-.9,2.16-.3,6.6a5.67,5.67,0,0,0,1.6,3.44,3.73,3.73,0,0,0,3.24,1,2.4,2.4,0,0,0,1.52-.77,5.28,5.28,0,0,0,.86-1.39,5.7,5.7,0,0,0,.42-1.61,7.12,7.12,0,0,1,.29-1.45l.5-3.59a11.72,11.72,0,0,1,.46-1.76c.12-.49.26-1,.43-1.54s.29-1,.42-1.54l1.43-5c.69-1.13,1.52-2.48,2.47-4.08l3-4.92q1.56-2.53,3.08-4.86c1-1.55,1.87-2.79,2.59-3.74l.83-1.1c.48-.64.9-1,1.27-1,.19,0,.3.1.34.37a5,5,0,0,1,0,.92,4.78,4.78,0,0,1-.61,1.71c-.22.41-.77,1.75-1.63,4s-1.75,4.9-2.67,7.84a91,91,0,0,0-2.29,9,23.31,23.31,0,0,0-.51,7.62q.44,3.18,2.53,4a7.91,7.91,0,0,0,4,.58,11.27,11.27,0,0,0,6-2.87,24.6,24.6,0,0,0,4.49-5.27l.13-.2a9.48,9.48,0,0,0,1.83,3.17c1.4,1.55,3.42,2.14,6.1,1.77a10.3,10.3,0,0,0,6.18-2.75,21.49,21.49,0,0,0,3.09-3.73l.47-.63.12.83a4.13,4.13,0,0,0,1.86,3.34,7.2,7.2,0,0,0,2.68,1l.86.16a2.72,2.72,0,0,1,.57,0,2.09,2.09,0,0,0,.56,0,11,11,0,0,0,6-2.87,24.41,24.41,0,0,0,4.21-4.83l0,.23a9.21,9.21,0,0,0,1,3.11,4.74,4.74,0,0,0,2.7,2.17l1.18.4a5.89,5.89,0,0,0,2.11,0q3.33-.45,6.61-4.29l-1.68,4.18c-.57,1.4-1.17,2.79-1.83,4.21q-4.8.93-9.8,1.55a62.37,62.37,0,0,0-9.75,2l-3.26.87a5.29,5.29,0,0,0-3.45,1.6,3.24,3.24,0,0,0-.92,2.53,2,2,0,0,0,.24.74,1.58,1.58,0,0,1,.22.6,25.81,25.81,0,0,0,4.6,5.72,32.81,32.81,0,0,0,5.52,4.25,20.07,20.07,0,0,0,7.42,2.72l1.72.19a8.26,8.26,0,0,0,1.84,0q3.31-.46,4.59-2.53a48.52,48.52,0,0,1,2.94-4.29l0-.13.12-.17h.13q1.26-2.14,2.24-4.26a24,24,0,0,1,1.22-2.42l1.72-3.9c3.35-.28,6.71-.47,10.08-.61s6.6-.18,9.71-.13a.94.94,0,0,1,.42,0,.59.59,0,0,0,.29,0q6,.31,8,.59a13.53,13.53,0,0,0,2.64.21C327.15,256.76,327.62,256.08,327.45,254.89Zm-41.72-64.67a27,27,0,0,1,5.57-8.79,37.31,37.31,0,0,1,7.09-5.84,40.81,40.81,0,0,1,6.86-3.49c2.15-.8,3.85-1.39,5.12-1.75l1.11-.15a10.93,10.93,0,0,1,3.9.17c1.31.29,2.08,1.26,2.31,2.92a10.89,10.89,0,0,1-.46,3.88l-.76,1.65A15.66,15.66,0,0,1,313,183a27.61,27.61,0,0,1-7.45,4.76,48.24,48.24,0,0,1-10.08,3.14c-3.62.74-7.17,1.34-10.68,1.82Zm-20.8,29.37a23.66,23.66,0,0,1-1.13,5.09q-2.07,6.63-3.73,10.88a46.44,46.44,0,0,1-3.17,6.71,14.47,14.47,0,0,1-2.7,3.47,4.7,4.7,0,0,1-2.31,1.17,2.29,2.29,0,0,1-1.28-.11l-.47-.36a4.81,4.81,0,0,1-.49-1.49,24.58,24.58,0,0,1,.33-4.77,43.85,43.85,0,0,1,1.85-7.09l1.23-3.41c1.33-3.29,2.52-5.94,3.56-8a37.59,37.59,0,0,1,2.75-4.67,9.81,9.81,0,0,1,2-2.25,3.25,3.25,0,0,1,1.38-.69,4.84,4.84,0,0,1,1.43.66,2.31,2.31,0,0,1,.87,1.71C265.08,217.22,265,218.26,264.93,219.59Zm18.46,40.06-6.51,10.06a14.48,14.48,0,0,1-6.63-3.6q-2.69-2.6-4-4.11a4.61,4.61,0,0,1,2.2-.93c1.23-.31,2.71-.63,4.45-1s3.6-.69,5.57-1.05,3.88-.67,5.73-.92Z"/><path class="cls-1" d="M199.33,270.39l.89,1.61a3.44,3.44,0,0,1,.44,1.27c.16,1.14-.86,1.86-3,2.16a17.94,17.94,0,0,0-2.46.07l-4.63.3c-1.81.11-3.75.27-5.81.46s-4,.42-5.85.67c-1.22.16-2.44.35-3.66.56s-2.43.45-3.64.7q-1.08,2.82-2.9,7.61t-3.84,10.4c2-.36,3.82-.67,5.47-.95s3-.48,4.19-.64l3.8-.52c.78-.1,1.35-.16,1.71-.17a1.94,1.94,0,0,1,.75.1q.21.11,1.05.39a9.47,9.47,0,0,1,3.36,2.08,6.21,6.21,0,0,1,2.13,3.84c.16,1.23-.54,1.95-2.11,2.16q-.66.09-2,.21c-.88.07-2.29.16-4.23.24l0-.13q-2.76.38-5.8.53t-6.07.56l-5.24.72q-1.05,3.09-2,6.15c-.66,2.05-1.3,4-1.94,5.87l-1.74,6.78a.42.42,0,0,0-.09.28l-.17.69-.45,2.6a15.32,15.32,0,0,1-.55,2.81,2.8,2.8,0,0,1-1.85,2.06c-.18,0-.26.08-.25.17a3.68,3.68,0,0,1-3.11-.78,4.82,4.82,0,0,1-1.41-3,4.14,4.14,0,0,1,0-1.2l-.15-.11a23.73,23.73,0,0,0-1.92-6.74,33.52,33.52,0,0,0-3.08-5.39A27,27,0,0,0,139.9,311c-1-1-1.79-1.64-2.28-2l-.15-.11a2.72,2.72,0,0,1-1.06-1.86c-.14-1.05.46-2,1.8-2.92a23.41,23.41,0,0,1,5-2.42c2-.72,4.11-1.36,6.34-1.94s4.17-1.06,5.81-1.46q1.6-4.89,3.1-9.5t2.95-8.68a4.29,4.29,0,0,1-1.52.54c-.7.14-1.26.24-1.7.3l-.26,0a14.88,14.88,0,0,0-2.17.76,9.15,9.15,0,0,1-2.44.67,4,4,0,0,1-2.11-.31,2.51,2.51,0,0,1-1.3-2.16c-.27-2,1.17-3.45,4.35-4.33l.88-.39c3.39-1.18,6.73-2.19,10-3s6.35-1.58,9.25-2.2,5.51-1.13,7.86-1.55,4.26-.71,5.75-.92l3-.41h1.87a8.28,8.28,0,0,1,3,.39A6.28,6.28,0,0,1,199.33,270.39Zm-49.72,48.19c.47-1.76,1-3.67,1.54-5.75s1.17-4.28,1.84-6.6l-6.24,1.26a8.84,8.84,0,0,1-2.06.55l-2.06.55a26.44,26.44,0,0,1,4.12,5.24,36.42,36.42,0,0,1,2.68,5.44Z"/><path class="cls-1" d="M203.12,281.48a16.25,16.25,0,0,1,1.62.89,5.58,5.58,0,0,0,.4-.77,6.52,6.52,0,0,1,.39-1.22C204.62,280.77,203.82,281.14,203.12,281.48Z"/><path class="cls-1" d="M296.63,279.08a4.94,4.94,0,0,0-3-4.06,9.82,9.82,0,0,0-5.58-.77,11.32,11.32,0,0,0-5.79,2.52,6.81,6.81,0,0,0-2.47,3.94,12.44,12.44,0,0,0-.12,3.49.85.85,0,0,0,.12.39,1.13,1.13,0,0,1,.12.38c0,.18.62,1.58,1.77,4.23a39,39,0,0,1,2.63,10.38,23.12,23.12,0,0,1,0,7.21q-.57,3.15-2.67,3.44a4.37,4.37,0,0,1-1-.27c-.56-.19-.92-.85-1.07-2a10.71,10.71,0,0,1,.24-3.57c.29-1.42.53-2.49.7-3.23.84-1.63,1.36-2.68,1.57-3.15a2.56,2.56,0,0,0,.21-1.36l-.07-.53-.5-.73a11.63,11.63,0,0,0-2.58-1.25l-1.1-.25a1.23,1.23,0,0,1-.47,0,1.23,1.23,0,0,0-.47,0,5.71,5.71,0,0,0-3.08,1.35,8.29,8.29,0,0,0-2,2.61,12.2,12.2,0,0,0-1,3.28,11.16,11.16,0,0,0-.15,2.07h0a42.11,42.11,0,0,1-3.76,5.4,29.31,29.31,0,0,1-3.14,2.9,11.24,11.24,0,0,1-5.76,2.33,6.53,6.53,0,0,1-3.29-.16,2.62,2.62,0,0,1-1.31-2.29,22,22,0,0,1,.12-4c.66-.35,1.68-1,3.08-1.88a34.94,34.94,0,0,0,4.5-3.62,43.45,43.45,0,0,0,4.86-5.48,31.51,31.51,0,0,0,4.12-7.44,15.47,15.47,0,0,0,1-4,13.31,13.31,0,0,0,0-2.66c-.27-2-1.09-3.26-2.44-3.74a8.17,8.17,0,0,0-3.87-.47,13.84,13.84,0,0,0-3.09.89,13.45,13.45,0,0,0-3.73,2.44,32.23,32.23,0,0,0-4.17,4.65,42.63,42.63,0,0,0-4.38,7.47,32.31,32.31,0,0,0-3,8.56c-.14.82-.26,1.61-.33,2.38h0l-.06.07a55.72,55.72,0,0,1-2.78,5.52,23.28,23.28,0,0,1-2.28,3.32,7.66,7.66,0,0,1-1.78,1.65,3.63,3.63,0,0,1-1.26.5,1.27,1.27,0,0,1-1-.13l0-.13,0-.27a13.45,13.45,0,0,1,.78-4c.6-2.08,1.33-4.39,2.19-6.91s1.74-5,2.64-7.5l2.14-5.84a11.68,11.68,0,0,0,.59-2.48,7.86,7.86,0,0,0,0-1.87q-.42-3-2.32-3.75a6.78,6.78,0,0,0-3.35-.55,7.56,7.56,0,0,0-2.86,1,11.38,11.38,0,0,0-2.63,2.29q-1.32,1.51-2.89,3.74t-3.66,5.44l1.05-3.08a17.65,17.65,0,0,1,.92-2.53l.67-1.43.35-1.38a2.34,2.34,0,0,0,0-.93c-.18-1.32-1.57-1.79-4.2-1.43a6,6,0,0,0-4.3,2.19,9,9,0,0,0-1.37,2.19l0,.13-1.41,4.33q-1.58,5-2.81,9.66c-.83,3.1-1.56,5.84-2.21,8.25a13.73,13.73,0,0,1-.94,2.86c-.24.42-.48.81-.71,1.16a22.34,22.34,0,0,1-2.55,3.36,3.55,3.55,0,0,1-1.77,1.18,4,4,0,0,1-1.14,0,.52.52,0,0,1-.46-.47,6.54,6.54,0,0,1,0-1.13,6.67,6.67,0,0,1,.21-1.43,12.17,12.17,0,0,1,.46-2c.21-.7.41-1.37.59-2s.47-1.44.64-2.09q1.4-4.45,3-9.22t3.26-9.39c1.08-3.09,2.15-6,3.2-8.78s1.95-5.23,2.72-7.39q4.89-1.32,10.08-2.44c3.36-.82,7.6-1.66,12.73-2.55l3.15-.43,5.83-.33c1.59-.08,2.64-.16,3.16-.23q2.14,0,2.34-1a4.22,4.22,0,0,0-1-2.8,6.22,6.22,0,0,0-1.56-1.59,5,5,0,0,0-1.57-.79,5.81,5.81,0,0,0-1.77-.29l-2.79.11-.66.1a22.91,22.91,0,0,0-3.41.46c-1.12.25-1.77.38-1.94.4q-2.61.49-7.91,1.69t-12.26,3.08l.11-.15c.65-1.69.66-2.8,0-3.34s-1.89-.67-3.73-.42a6.36,6.36,0,0,0-2.8,1,10.15,10.15,0,0,0-1.8,1.51,5.7,5.7,0,0,0-1.18,2l-1.11,2.69c-1.7.59-3.44,1.2-5.22,1.85s-3.51,1.3-5.2,2a12.11,12.11,0,0,1-1.2.44,11,11,0,0,0-1.71.76,5.23,5.23,0,0,0-1.36.73q-3.19,1.78-2,4.22l-.33,1.17a5,5,0,0,1-.23.76.49.49,0,0,0,0,.34c.1.79.69,1.15,1.75,1.09.45,0,.87,0,1.27,0s.77,0,1.12-.08a8.58,8.58,0,0,0,1.52-.36c.74.44,1.55.93,2.44,1.48a20.16,20.16,0,0,1,3.37,2.68c-1.29,4.18-2.52,8.28-3.65,12.31l-3,10.49c-.12.46-.22.85-.31,1.17s-.19.69-.31,1.11a12.09,12.09,0,0,0-.32,1.58,1.23,1.23,0,0,0,0,.19,16.28,16.28,0,0,1-2.36,3.41c-1.36,1.39-2.35,2.12-3,2.21s-1,0-1.16-.18a1.16,1.16,0,0,1-.28-.57,4.34,4.34,0,0,1,0-.86,1.72,1.72,0,0,1,.27-.91l1.76-6.65q.86-2.5,1.67-5.3t1.78-5.58c.63-1.86,1.27-3.69,1.92-5.47s1.27-3.37,1.88-4.79l.47-1.4a2.33,2.33,0,0,0,0-.94q-.26-1.83-4.18-1.29a5.81,5.81,0,0,0-4.84,3.19,28,28,0,0,0-2,5.48q-1.59,5-2.82,9.66c-.82,3.1-1.56,5.85-2.2,8.25q-.62,2.35-1.27,4.91a12,12,0,0,0-.38,4.52c.24,1.75.94,2.83,2.12,3.25a20.37,20.37,0,0,0,2.57.79.8.8,0,0,0,.55.05l.25,0a2,2,0,0,1,.54,0,2.35,2.35,0,0,0,.53,0,10.57,10.57,0,0,0,5.77-2.73,24.94,24.94,0,0,0,2.26-2.35,3,3,0,0,0,1.32,1.66,7.5,7.5,0,0,0,2.74,1.09.8.8,0,0,0,.55.06l.26,0a9.8,9.8,0,0,0,6.16-2.32,24.51,24.51,0,0,0,2.78-2.7,5.11,5.11,0,0,0,1.43,2.79,3.52,3.52,0,0,0,3.07.91,2.16,2.16,0,0,0,1.43-.73,5,5,0,0,0,.82-1.31,5.07,5.07,0,0,0,.39-1.52,7,7,0,0,1,.28-1.37l.47-3.41a12,12,0,0,1,.44-1.66c.11-.45.25-.94.4-1.45s.29-1,.4-1.46l1.36-4.72,2.34-3.86q1.36-2.26,2.83-4.66c1-1.6,2-3.14,2.91-4.6s1.77-2.65,2.45-3.55l.79-1c.45-.59.85-.92,1.2-1,.18,0,.28.09.32.36a5.12,5.12,0,0,1,0,.87,4.64,4.64,0,0,1-.59,1.61c-.21.38-.73,1.66-1.54,3.81s-1.66,4.64-2.52,7.43a83.48,83.48,0,0,0-2.17,8.51,22.06,22.06,0,0,0-.49,7.2c.28,2,1.07,3.28,2.39,3.81a7.41,7.41,0,0,0,3.82.54,10.55,10.55,0,0,0,5.7-2.71,23.09,23.09,0,0,0,4.25-5c.52-.83,1-1.64,1.42-2.41a9.54,9.54,0,0,0,3.26,4.84,10.21,10.21,0,0,0,8,1.78c.43-.06.89-.15,1.37-.26s1-.24,1.48-.4l.13,0a14,14,0,0,0,5.42-3.28,36,36,0,0,0,4.34-4.86c.37-.5.72-1,1-1.47a12,12,0,0,0,3.21,4.76,10,10,0,0,0,8.46,2.31,12.36,12.36,0,0,0,4.14-1.44,11.54,11.54,0,0,0,3.77-3.25,15.53,15.53,0,0,0,2.44-5.07,16.42,16.42,0,0,0,.33-6.79,28.84,28.84,0,0,0-1.14-5c-.55-1.67-1.11-3.21-1.71-4.64s-1.13-2.69-1.58-3.79a24,24,0,0,1-.93-2.4,3.9,3.9,0,0,1-.3-1.17,4.34,4.34,0,0,1,.38-2.58,2,2,0,0,1,1.49-1.28c.87-.12,1.39.39,1.55,1.52a6.58,6.58,0,0,1,0,1.6,5.9,5.9,0,0,0,0,1.21c.07.53.51.8,1.32.82a8.6,8.6,0,0,1,1.08.05,5.4,5.4,0,0,0,1.39-1A2.89,2.89,0,0,0,296.63,279.08Zm-39.16,17.18a63.67,63.67,0,0,1,2.87-5.86,32.1,32.1,0,0,1,3.2-4.85,5.47,5.47,0,0,1,3.1-2.23.57.57,0,0,1,.41.08.24.24,0,0,0,.1.19.3.3,0,0,1,.08.18,8.12,8.12,0,0,1-.5,2.68,23.19,23.19,0,0,1-2,4.54,36.47,36.47,0,0,1-3.74,5.38,27.4,27.4,0,0,1-5.76,5.2Q256.15,299.31,257.47,296.26ZM205.73,283c-.33-.22-.66-.43-1-.62a16.25,16.25,0,0,0-1.62-.89c.7-.34,1.5-.71,2.41-1.1q2.08-.87,4.92-1.91c-.31,1-.65,2.07-1,3.15s-.72,2.17-1,3.27C207.5,284.22,206.61,283.59,205.73,283Z"/><path class="cls-1" d="M308.1,273.24a11.32,11.32,0,0,1,5.8-2.53,9.81,9.81,0,0,1,5.58.77,5,5,0,0,1,3,4.07,2.9,2.9,0,0,1-.89,2.79,5.26,5.26,0,0,1-1.4,1,7.43,7.43,0,0,0-1.07-.05c-.81,0-1.24-.3-1.32-.83a5.79,5.79,0,0,1,0-1.2,6.58,6.58,0,0,0,0-1.6c-.16-1.14-.67-1.64-1.54-1.52a2,2,0,0,0-1.5,1.27,4.38,4.38,0,0,0-.38,2.59,4.1,4.1,0,0,0,.29,1.16c.16.51.47,1.31.93,2.41s1,2.35,1.59,3.78,1.16,3,1.71,4.64a29.06,29.06,0,0,1,1.14,5,16.42,16.42,0,0,1-.33,6.79,15.35,15.35,0,0,1-2.45,5.07,11.5,11.5,0,0,1-3.75,3.26,12.67,12.67,0,0,1-4.15,1.43,10,10,0,0,1-8.46-2.31,12.84,12.84,0,0,1-4-8.12,11.62,11.62,0,0,1,.05-3.48,12.31,12.31,0,0,1,1-3.28,8.28,8.28,0,0,1,2-2.6,5.69,5.69,0,0,1,3.09-1.36,1.41,1.41,0,0,1,.46,0,1.23,1.23,0,0,0,.47,0l1.1.25a11.85,11.85,0,0,1,2.58,1.25l.5.73.07.53a2.55,2.55,0,0,1-.21,1.36c-.21.48-.73,1.53-1.58,3.15q-.24,1.11-.69,3.24a11,11,0,0,0-.24,3.57c.15,1.13.51,1.8,1.07,2a3.57,3.57,0,0,0,1,.26q2.1-.29,2.67-3.43a23.13,23.13,0,0,0,0-7.21,39.61,39.61,0,0,0-2.62-10.39q-1.76-4-1.78-4.23a1.13,1.13,0,0,0-.12-.38.81.81,0,0,1-.12-.38,12.43,12.43,0,0,1,.12-3.49A6.79,6.79,0,0,1,308.1,273.24Z"/><line x1="153.06" y1="283.94" x2="157.5" y2="282.82"/><path class="cls-1" d="M212.26,344.05l-1.75-11,.06,11h-1.22L209.28,330h1.85l1.57,11.92L214,330h1.86L216,344h-1.21L214.7,333l-1.63,11.06Z"/><path class="cls-1" d="M222.13,340.82,221.8,344h-1.28l.49-4.37,1.07-8.08H224l1.16,8.06.53,4.37h-1.28l-.36-3.18Zm1.8-.72-.91-7.93-.83,7.94Z"/><path class="cls-1" d="M234.43,337.37l0,5.48c0,.82-.71,1.23-2.13,1.25s-2.13-.4-2.13-1.23l-.06-10.23c0-.83.7-1.24,2.12-1.25s2.14.4,2.14,1.23l0,2.86h-1.27v-2.87c0-.35-.29-.52-.86-.52h0c-.57,0-.85.18-.85.53l.05,10.24c0,.35.29.52.86.52s.87-.18.87-.53l0-4.77h-.71v-.72Z"/><path class="cls-1" d="M240.51,340.72l-.33,3.19H238.9l.49-4.37,1.07-8.08h1.88l1.16,8.06.53,4.38h-1.28l-.36-3.18Zm1.8-.72-.91-7.93-.83,7.94Z"/><path class="cls-1" d="M251.71,331.85l-2.13,11.3h2.28v.7l-3.72,0v-.44l2.14-11.3h-2.12v-.71h3.56Z"/><path class="cls-1" d="M256.51,331.38h1.27l.07,12.44h-1.27Z"/><path class="cls-1" d="M266,331.33h1.21l.06,12.44h-.81l-2.35-8.88.05,8.89H263L263,331.35h.82l2.28,8.9Z"/><path class="cls-1" d="M272.31,331.3l3.81,0v.7h-2.54l0,5.16h2.19v.71h-2.2l0,5.17,2.54,0v.71l-3.8,0Z"/><path class="cls-1" d="M242.8,460s9.3,2.67,10.78-56.12l-11.17-8.12-11,8.15S233.6,457.17,242.8,460Z"/><rect class="cls-1" x="198.53" y="112.57" width="81.98" height="9.18" transform="translate(-0.71 1.47) rotate(-0.35)"/><path class="cls-1" d="M258.92,144.05c.79-9.53,13.61-15.5,20.17-19l-78.25.41s15,5.14,18.41,18.59"/><path class="cls-2" d="M262.91,374.23a111.51,111.51,0,0,1-41.42,0l10.34,7.52-6.41,19.72,16.78-12.19L259,401.47l-6.41-19.72Z"/><path class="cls-2" d="M200.29,74.63s-8,18.57,6.29,33.33h14.63c-4.34-4.06-16.07-16.43-12.88-29.17,0,0,4.44-12.77-4.45-23.88,0,0,2.78,8.88-2.22,13.88,0,0-14.11,11.92-3.42,32.59A31.7,31.7,0,0,1,200.29,74.63Z"/><path class="cls-2" d="M287.21,77.13c-6.39-9.17,0-15.56,0-15.56-8.33,3.34-7.5,10.83-7.5,10.83-3.33-1.11-3.61-7.49-3.61-7.49-.83-9.73,5-12.78,5-12.78-2.22-.56-5,1.67-5,1.67-10.55,9.44-4.17,20.27-4.17,20.27,8,16-4.27,29.94-8.26,33.89h7c18.18-10.18,12.74-29.09,12.74-29.09,4.16,10.72,1.2,19-2.2,24.24C297.28,89.33,287.21,77.13,287.21,77.13Z"/><path class="cls-2" d="M257.24,44.73c-6,8.65-11.54,22.45-12.24,44.16,0,0-17.86-39.89,27-57.35l.48-.24s-25.29-1-38.93,26.42c.22-4.55.12-15.59-5.47-19.31,0,0,3,7.69-4.73,18.35,0,0-8.88,9.47-9.47,19.53,0,0-2.69,20.55,13.1,31.67h2.67c-3.23-2.87-20-19.73-4.4-48.77,0,0-12,36.07,13.89,48.77h9.51c18.18-10.18,12.74-29.09,12.74-29.09,5.88,15.15-2.47,25.48-6.15,29.09h1.71a26.19,26.19,0,0,0,6.85-7.07v0c.45-.54,12.48-15.57-5.54-40C258.25,60.9,253.44,53.3,257.24,44.73Z"/></g></svg>