<svg id="Layer_1" data-name="Layer 1" xmlns="http://www.w3.org/2000/svg" viewBox="0 0 167.33 322.01"><defs><style>.cls-1{fill:#fff;}</style></defs><title>V_White</title><path class="cls-1" d="M96.57,205a73.79,73.79,0,0,1-2.69-19.78c0-41.09,33.7-74.4,75.28-74.4a75.62,75.62,0,0,1,31.33,6.74l3.66-3.08a80.15,80.15,0,0,0-35-8c-44,0-79.66,35.25-79.66,78.73a77.78,77.78,0,0,0,3.42,22.86Z" transform="translate(-85.11 -13.17)"/><path class="cls-1" d="M90.87,210a80.09,80.09,0,0,1-3.77-24.36c0-44.87,36.85-81.25,82.31-81.25a82.9,82.9,0,0,1,36.8,8.56l2-1.7A84.93,84.93,0,0,0,169.61,102c-46.67,0-84.5,37.34-84.5,83.41a82.27,82.27,0,0,0,4.16,25.9Z" transform="translate(-85.11 -13.17)"/><path class="cls-1" d="M232.05,131.09l-1.83,1.63a80.36,80.36,0,0,1,19.84,52.9c0,44.88-36.85,81.26-82.31,81.26a82.52,82.52,0,0,1-59.49-25.12L106.84,243A84.8,84.8,0,0,0,168,268.84c46.66,0,84.49-37.35,84.49-83.41A82.46,82.46,0,0,0,232.05,131.09Z" transform="translate(-85.11 -13.17)"/><path class="cls-1" d="M228.26,134.34,225,137.25a73.61,73.61,0,0,1,17.77,48c0,41.09-33.7,74.41-75.28,74.41A75.49,75.49,0,0,1,113.43,237l-3.25,2.9A79.84,79.84,0,0,0,167.5,264c44,0,79.66-35.25,79.66-78.73A77.92,77.92,0,0,0,228.26,134.34Z" transform="translate(-85.11 -13.17)"/><path class="cls-1" d="M127.67,178.81l.52-3.14.48-2q1-3.63,2.33-8.47t3.06-10.17l1.84-5.87c.39-1.25.8-2.42,1.22-3.5s.83-2.14,1.25-3.19c-1.21.38-2.46.8-3.74,1.25s-2.44.9-3.48,1.33l-2.5,1c-.64.26-1,.36-1,.29a5.42,5.42,0,0,1-1.14.58,7.34,7.34,0,0,1-1.88.58,2.08,2.08,0,0,1-1.75-.4l-.24-.18a1.86,1.86,0,0,0-.36-.69,2,2,0,0,1-.38-.9q-.29-2.08,2.15-3.58l1.37-.82q5.22-2.21,8.28-3.36t5.22-1.78c1.42-.41,2.72-.74,3.88-1l4.22-1c.14,0,.65-.12,1.54-.31s1.86-.36,2.9-.51l1-.14,3.57-.27a4.92,4.92,0,0,1,1.39.12,6.43,6.43,0,0,1,1.95.72,6.89,6.89,0,0,1,1.79,1.48,4.54,4.54,0,0,1,1,2.47c.13.95-.43,1.52-1.67,1.69l-10,.73-4.23.79a16.22,16.22,0,0,0-1.24,2.56c-.48,1.17-1,2.51-1.52,4s-1.08,3.18-1.65,5-1.15,3.56-1.76,5.34l-2.59,7.37-1.58,4.68-1.1,3.55a6.06,6.06,0,0,0-.38,1.48,3.06,3.06,0,0,1-.41,1.28l-.12.66a1.88,1.88,0,0,0-.25.93c0,.32,0,.41,0,.27v.1a.43.43,0,0,0-.06.33l3.43-.47a.59.59,0,0,1,.43.05l2.5-.34a3.66,3.66,0,0,1,1.24.14,6.27,6.27,0,0,1,1.69.73,7,7,0,0,1,1.61,1.36,4,4,0,0,1,.93,2.1c.11.83-.6,1.36-2.12,1.56-.42.06-1.36.15-2.82.28s-3.25.27-5.35.42l-.62.08q-2.72.38-4.41.66c-1.14.19-2.12.38-3,.56a20.32,20.32,0,0,0-2.24.63,23.33,23.33,0,0,0-2.31,1c-.33.19-.84.43-1.54.74a7.22,7.22,0,0,1-2,.59,3.06,3.06,0,0,1-1.42-.28,1.92,1.92,0,0,1-1.08-1.71,2.5,2.5,0,0,1,.72-2.11,7.72,7.72,0,0,1,2.46-1.71l2.7-1.22,5-1.63Z" transform="translate(-85.11 -13.17)"/><path class="cls-1" d="M235.3,181.12a4.18,4.18,0,0,0-1.55-2.81,5.15,5.15,0,0,0-2.49-1.19l-2.15-.23-.32,0c-.07,0-.1,0-.11-.09h-.11l-3.66,0c-1,0-2.08,0-3.16.12s-2.3.19-3.66.34l-5.17.55,1.48-3.91a.2.2,0,0,1,.16,0,.2.2,0,0,0,.16,0h.11a2,2,0,0,1,.42,0,1.48,1.48,0,0,0,.42,0,8.43,8.43,0,0,0,4.53-2.16,18.71,18.71,0,0,0,3.38-4,31.43,31.43,0,0,0,2.15-4c.54-1.24.85-2,1-2.3a1.91,1.91,0,0,0,.08-1l-.07-.52-.39-.47a2,2,0,0,0-1-.19,1.28,1.28,0,0,0-.64.35,4.72,4.72,0,0,0-.51.55c-1.62,3.62-3,6-4,7.07a5.31,5.31,0,0,1-2.4,1.75c-.56.08-.87-.12-.93-.61,0-.14-.05-.31-.08-.52a.71.71,0,0,1,.14-.55v-.1c0-.07,0-.11,0-.11s.05-.05,0-.12l1.38-5.37c.7-2.15,1.43-4.38,2.21-6.71s1.57-4.62,2.4-6.85l1.16-3.13a2.36,2.36,0,0,0,.38-1,3.53,3.53,0,0,0,0-.8c-.14-1-1.26-1.42-3.33-1.13a5.41,5.41,0,0,0-2.33.79,6.08,6.08,0,0,0-1.32,1.19,6.67,6.67,0,0,0-.86,1.5l-.48,1.86a12,12,0,0,0-.46,1.29,13.24,13.24,0,0,0-.42,1.59l-1.24,4.09a57.83,57.83,0,0,1-2.23,5.76,60.26,60.26,0,0,1-2.75,5.46,33.07,33.07,0,0,1-2.72,4.14c-.87,1.1-1.55,1.69-2,1.76-.28,0-.44-.12-.49-.47a17,17,0,0,1,.21-1.93,25.42,25.42,0,0,1,.54-2.62l.7-2.63c0-.07,0-.11,0-.12s.05,0,0-.11v-.1l5.76-16.68a2.9,2.9,0,0,0,.38-1.86c-.14-1-1.25-1.42-3.33-1.13a5.09,5.09,0,0,0-2.28.79,9.22,9.22,0,0,0-1.37,1.19,5.32,5.32,0,0,0-1,1.51l-.48,1.87a69.21,69.21,0,0,0-2.77,8.43q-.75,2.9-1.32,5.28a4.49,4.49,0,0,0-.44.47q-2.44,5.31-4,7a5.36,5.36,0,0,1-2.3,1.74.93.93,0,0,1-1.19-.89,8.94,8.94,0,0,1,.42-3.13l.15-.45c.1-.36.18-.69.24-1s.15-.59.25-.88l.2-.88L198,148.08c.53-1.27,1-2.53,1.44-3.79s.85-2.45,1.26-3.57a59.55,59.55,0,0,0,13.84-3.37,33.85,33.85,0,0,0,9.29-5.25,18,18,0,0,0,5.07-6.31,11.76,11.76,0,0,0,1.06-6.55,5,5,0,0,0-1.16-2.71,5.52,5.52,0,0,0-2.27-1.49,10,10,0,0,0-2.93-.49,19,19,0,0,0-3,.15,24.4,24.4,0,0,0-8.82,2.9,33.67,33.67,0,0,0-7,5.2,39.13,39.13,0,0,0-5.24,6.22,67.58,67.58,0,0,0-3.72,6.13l-5.13.38-4,0c-.57,0-1.15,0-1.74.08s-1.17.11-1.73.18a10,10,0,0,0-4.82,1.94,4.63,4.63,0,0,0-1.58,4.66,5.77,5.77,0,0,0,1.23,2.85c.69.86,1.13,1.28,1.34,1.25s.51-.18.48-.38l.24-.57a6,6,0,0,1,2.77-2.6,12,12,0,0,1,3.6-1.13,23.55,23.55,0,0,1,3.37-.2,20.91,20.91,0,0,0,3.36-.19l-3,9.63-.08-.52c-.21-1.59-.78-2.63-1.69-3.1a4.77,4.77,0,0,0-2.93-.5,9.32,9.32,0,0,0-4.27,1.75,20.1,20.1,0,0,0-3.65,3.46,28.76,28.76,0,0,0-2.95,4.33,35.12,35.12,0,0,0-2.06,4.3,19,19,0,0,0-1.46,5.61,24.24,24.24,0,0,0-.14,3.67c-.31.59-.6,1.13-.88,1.61a19.08,19.08,0,0,1-1.82,2.63,5.93,5.93,0,0,1-1.41,1.31,3.13,3.13,0,0,1-1,.4,1.07,1.07,0,0,1-.76-.11v-.11l0-.2a10.3,10.3,0,0,1,.62-3.21q.72-2.49,1.74-5.49t2.1-6l1.69-4.63a9.38,9.38,0,0,0,.47-2,6.2,6.2,0,0,0,0-1.49c-.22-1.59-.83-2.58-1.84-3a5.44,5.44,0,0,0-2.65-.43,6.13,6.13,0,0,0-2.28.79,9.09,9.09,0,0,0-2.08,1.82,35.65,35.65,0,0,0-2.29,3q-1.24,1.75-2.91,4.31l.83-2.44a17.55,17.55,0,0,1,.73-2l.54-1.13.27-1.1a1.9,1.9,0,0,0,0-.74c-.14-1-1.26-1.42-3.34-1.13a4.79,4.79,0,0,0-3.41,1.74,7.62,7.62,0,0,0-1.09,1.73v.11l-1.11,3.44c-.84,2.65-1.58,5.21-2.24,7.66s-1.24,4.64-1.75,6.55a12,12,0,0,1-.78,2.39,10,10,0,0,0-.23,5,4.29,4.29,0,0,0,1.21,2.59,2.79,2.79,0,0,0,2.43.73,1.8,1.8,0,0,0,1.14-.58,3.89,3.89,0,0,0,.64-1,4.08,4.08,0,0,0,.32-1.21,4.75,4.75,0,0,1,.22-1.09l.37-2.7a9.2,9.2,0,0,1,.35-1.32c.09-.37.2-.75.32-1.16s.22-.79.32-1.16l1.07-3.74c.52-.85,1.14-1.87,1.86-3.07l2.25-3.69c.78-1.28,1.55-2.49,2.3-3.66s1.41-2.09,1.95-2.8l.63-.83c.36-.48.67-.73,1-.77s.22.08.25.28a3.23,3.23,0,0,1,0,.69,3.44,3.44,0,0,1-.46,1.28c-.17.31-.58,1.32-1.22,3s-1.32,3.67-2,5.88a69.67,69.67,0,0,0-1.72,6.76,17.63,17.63,0,0,0-.38,5.72c.22,1.59.85,2.6,1.9,3a5.89,5.89,0,0,0,3,.43,8.42,8.42,0,0,0,4.53-2.15,18.37,18.37,0,0,0,3.37-4s.06-.1.1-.15a7.23,7.23,0,0,0,1.37,2.38,4.88,4.88,0,0,0,4.58,1.33,7.73,7.73,0,0,0,4.64-2.06,16.41,16.41,0,0,0,2.33-2.81l.35-.47.09.62a3.13,3.13,0,0,0,1.4,2.51,5.44,5.44,0,0,0,2,.73l.65.12a2.94,2.94,0,0,1,.42,0,1.54,1.54,0,0,0,.43,0,8.32,8.32,0,0,0,4.52-2.15,18.5,18.5,0,0,0,3.16-3.63c0,.06,0,.12,0,.17a7.13,7.13,0,0,0,.75,2.34,3.56,3.56,0,0,0,2,1.63l.89.3a4.42,4.42,0,0,0,1.59,0c1.66-.22,3.32-1.3,5-3.22l-1.26,3.14c-.43,1-.88,2.1-1.37,3.16q-3.62.71-7.37,1.17a47,47,0,0,0-7.32,1.47l-2.45.66a4,4,0,0,0-2.59,1.2,2.41,2.41,0,0,0-.69,1.9,1.43,1.43,0,0,0,.18.55,1.45,1.45,0,0,1,.17.46,19,19,0,0,0,3.45,4.29,24.48,24.48,0,0,0,4.14,3.19,15,15,0,0,0,5.58,2.05l1.29.14a5.88,5.88,0,0,0,1.38,0,4.49,4.49,0,0,0,3.45-1.9,38.06,38.06,0,0,1,2.21-3.22l0-.1.09-.12h.1c.63-1.08,1.2-2.14,1.69-3.2a16.84,16.84,0,0,1,.91-1.82l1.3-2.93c2.51-.21,5-.35,7.56-.45s5-.14,7.3-.11a1.07,1.07,0,0,1,.32,0,.39.39,0,0,0,.21,0c3,.15,5,.3,6,.44a9.88,9.88,0,0,0,2,.15C235.07,182.53,235.43,182,235.3,181.12ZM204,132.55a20.36,20.36,0,0,1,4.18-6.61,28.82,28.82,0,0,1,5.33-4.39,30.1,30.1,0,0,1,5.15-2.61c1.62-.61,2.9-1,3.85-1.32l.83-.12a8.28,8.28,0,0,1,2.93.14,2.27,2.27,0,0,1,1.74,2.19,8.24,8.24,0,0,1-.35,2.91l-.57,1.24a11.7,11.7,0,0,1-2.59,3.17,20.5,20.5,0,0,1-5.6,3.57,36.08,36.08,0,0,1-7.56,2.36c-2.72.55-5.39,1-8,1.37Zm-15.62,22.06a18,18,0,0,1-.85,3.82c-1,3.32-2,6-2.8,8.17a33.69,33.69,0,0,1-2.39,5,10.43,10.43,0,0,1-2,2.61,3.44,3.44,0,0,1-1.74.87,1.7,1.7,0,0,1-1-.07l-.35-.28a3.53,3.53,0,0,1-.37-1.11,18.46,18.46,0,0,1,.25-3.58,31.82,31.82,0,0,1,1.39-5.33l.92-2.56c1-2.47,1.89-4.46,2.68-6a28.55,28.55,0,0,1,2.06-3.51,7.61,7.61,0,0,1,1.52-1.69,2.4,2.4,0,0,1,1-.51,3.31,3.31,0,0,1,1.07.49,1.7,1.7,0,0,1,.65,1.28C188.45,152.83,188.41,153.61,188.34,154.61Zm13.87,30.09-4.9,7.56a11,11,0,0,1-5-2.71q-2-2-3-3.08a3.45,3.45,0,0,1,1.65-.71c.93-.23,2-.47,3.35-.72l4.18-.78c1.48-.28,2.92-.51,4.31-.7Z" transform="translate(-85.11 -13.17)"/><path class="cls-1" d="M139.07,192.76l.66,1.21a2.7,2.7,0,0,1,.34,1c.11.85-.65,1.39-2.29,1.62a14.76,14.76,0,0,0-1.85,0l-3.48.23c-1.35.08-2.81.2-4.36.34s-3,.32-4.39.5c-.92.13-1.84.27-2.75.43s-1.83.34-2.74.53q-.81,2.12-2.17,5.71t-2.89,7.81c1.5-.27,2.87-.51,4.11-.71s2.29-.36,3.14-.48l2.86-.39c.59-.08,1-.12,1.28-.13a1.32,1.32,0,0,1,.57.08,8.36,8.36,0,0,0,.79.29,7.15,7.15,0,0,1,2.52,1.56,4.66,4.66,0,0,1,1.6,2.89q.18,1.38-1.59,1.62c-.33,0-.82.1-1.48.15s-1.72.12-3.18.19l0-.1c-1.37.19-2.83.32-4.35.39s-3.05.22-4.56.43l-3.93.54q-.8,2.31-1.53,4.62c-.49,1.54-1,3-1.45,4.41l-1.31,5.09a.31.31,0,0,0-.07.21l-.13.52-.33,1.95a11.74,11.74,0,0,1-.41,2.11,2.11,2.11,0,0,1-1.4,1.55c-.13,0-.19.06-.18.12a2.76,2.76,0,0,1-2.34-.58,3.65,3.65,0,0,1-1.06-2.26,3.09,3.09,0,0,1,0-.9l-.11-.09a17.78,17.78,0,0,0-1.45-5.06,24.78,24.78,0,0,0-2.31-4,19.59,19.59,0,0,0-2.39-2.83c-.77-.73-1.34-1.23-1.71-1.52l-.11-.08a2,2,0,0,1-.8-1.4c-.1-.79.35-1.51,1.36-2.19a17.58,17.58,0,0,1,3.76-1.82q2.23-.81,4.76-1.45l4.36-1.1,2.34-7.14q1.13-3.47,2.21-6.52a3.07,3.07,0,0,1-1.15.41c-.52.11-.94.18-1.27.22l-.2,0a13.2,13.2,0,0,0-1.62.57,6.85,6.85,0,0,1-1.84.51,3,3,0,0,1-1.59-.24,1.85,1.85,0,0,1-1-1.62q-.32-2.26,3.26-3.25l.67-.29q3.83-1.33,7.51-2.29t6.94-1.65q3.26-.69,5.9-1.16c1.77-.31,3.2-.54,4.32-.69l2.26-.31h1.41a6,6,0,0,1,2.25.29A4.75,4.75,0,0,1,139.07,192.76ZM101.71,229c.36-1.32.74-2.76,1.17-4.32s.88-3.21,1.37-4.95l-4.68.94A6.13,6.13,0,0,1,98,221l-1.54.42a20.23,20.23,0,0,1,3.09,3.93,27,27,0,0,1,2,4.09Z" transform="translate(-85.11 -13.17)"/><path class="cls-1" d="M141.91,201.09c.4.2.81.42,1.22.67a5.12,5.12,0,0,0,.3-.57,4.57,4.57,0,0,1,.29-.92C143,200.56,142.43,200.84,141.91,201.09Z" transform="translate(-85.11 -13.17)"/><path class="cls-1" d="M212.15,199.3a3.7,3.7,0,0,0-2.23-3.06,7.39,7.39,0,0,0-4.19-.58,8.57,8.57,0,0,0-4.35,1.9,5.1,5.1,0,0,0-1.85,3,9.16,9.16,0,0,0-.09,2.62.62.62,0,0,0,.09.29.76.76,0,0,1,.09.29c0,.13.46,1.18,1.33,3.17a29.2,29.2,0,0,1,2,7.8,17.52,17.52,0,0,1,0,5.42q-.43,2.37-2,2.58a3.3,3.3,0,0,1-.73-.2c-.42-.15-.69-.64-.8-1.49a8.16,8.16,0,0,1,.18-2.69c.22-1.06.4-1.87.52-2.42.63-1.23,1-2,1.18-2.37a1.89,1.89,0,0,0,.16-1l0-.4-.38-.55a8.23,8.23,0,0,0-1.93-.94l-.83-.19a1,1,0,0,1-.35,0,1,1,0,0,0-.35,0,4.36,4.36,0,0,0-2.32,1,6.19,6.19,0,0,0-1.48,2,8.84,8.84,0,0,0-.77,2.46,8.27,8.27,0,0,0-.12,1.56h0a31.54,31.54,0,0,1-2.82,4.05,20.66,20.66,0,0,1-2.36,2.18,8.39,8.39,0,0,1-4.32,1.75,4.93,4.93,0,0,1-2.47-.12,2,2,0,0,1-1-1.72,16.67,16.67,0,0,1,.09-3c.49-.27,1.26-.74,2.31-1.42a26.32,26.32,0,0,0,3.39-2.72,32.93,32.93,0,0,0,3.64-4.11,23.74,23.74,0,0,0,3.1-5.59,11.51,11.51,0,0,0,.74-3,9.86,9.86,0,0,0,0-2c-.2-1.51-.81-2.44-1.83-2.81a6.11,6.11,0,0,0-2.91-.35,10,10,0,0,0-2.32.67,9.65,9.65,0,0,0-2.8,1.84,23.81,23.81,0,0,0-3.13,3.48,32.89,32.89,0,0,0-3.29,5.62,23.89,23.89,0,0,0-2.28,6.43c-.11.61-.2,1.21-.25,1.78h0l-.05,0a42.58,42.58,0,0,1-2.09,4.15,18.08,18.08,0,0,1-1.71,2.49,5.63,5.63,0,0,1-1.34,1.23,2.5,2.5,0,0,1-1,.38.91.91,0,0,1-.71-.1l0-.1,0-.2a10,10,0,0,1,.58-3q.69-2.36,1.65-5.19t2-5.64l1.6-4.38a9.45,9.45,0,0,0,.45-1.87,6.58,6.58,0,0,0,0-1.4c-.21-1.51-.79-2.45-1.75-2.82a5.09,5.09,0,0,0-2.51-.41,5.68,5.68,0,0,0-2.15.75,8.62,8.62,0,0,0-2,1.72,35.15,35.15,0,0,0-2.17,2.81c-.79,1.11-1.7,2.47-2.75,4.08l.79-2.31a14.8,14.8,0,0,1,.68-1.9l.51-1.07.26-1a1.76,1.76,0,0,0,0-.7c-.13-1-1.18-1.34-3.15-1.07a4.46,4.46,0,0,0-3.23,1.65,6.91,6.91,0,0,0-1,1.64v.1l-1.06,3.25c-.79,2.52-1.49,4.93-2.11,7.26s-1.17,4.38-1.66,6.19a9.94,9.94,0,0,1-.7,2.15c-.19.32-.36.61-.54.88a16.77,16.77,0,0,1-1.91,2.52,2.66,2.66,0,0,1-1.33.88,2.75,2.75,0,0,1-.85,0,.39.39,0,0,1-.35-.36,5.23,5.23,0,0,1,0-.84,5.41,5.41,0,0,1,.16-1.08,10,10,0,0,1,.34-1.5c.16-.52.31-1,.45-1.52s.35-1.08.48-1.57q1.05-3.34,2.26-6.92t2.45-7.06c.81-2.32,1.61-4.51,2.4-6.59s1.47-3.93,2.05-5.55q3.67-1,7.57-1.84c2.52-.61,5.71-1.24,9.56-1.91l2.36-.32,4.38-.25c1.2-.06,2-.12,2.38-.17,1.07,0,1.65-.27,1.76-.75a3.22,3.22,0,0,0-.74-2.1,4.78,4.78,0,0,0-1.17-1.2,4,4,0,0,0-1.18-.59,4.21,4.21,0,0,0-1.33-.21l-2.1.08-.49.07a17,17,0,0,0-2.56.35l-1.46.3q-2,.38-5.94,1.26c-2.67.61-5.73,1.37-9.21,2.32l.08-.11c.49-1.27.5-2.11,0-2.51a3.87,3.87,0,0,0-2.8-.32,4.83,4.83,0,0,0-2.11.74,8.06,8.06,0,0,0-1.35,1.14,4.45,4.45,0,0,0-.89,1.53l-.82,2-3.93,1.38c-1.34.49-2.64,1-3.9,1.49l-.91.33a7.61,7.61,0,0,0-1.28.57,3.88,3.88,0,0,0-1,.54q-2.4,1.35-1.51,3.17l-.24.88a3,3,0,0,1-.18.58s0,.12,0,.25c.08.59.52.87,1.31.82.34,0,.66,0,1,0a7.21,7.21,0,0,0,.84-.06,6.26,6.26,0,0,0,1.14-.27l1.83,1.11a15.82,15.82,0,0,1,2.54,2c-1,3.14-1.9,6.23-2.75,9.25s-1.59,5.65-2.23,7.88c-.09.34-.16.64-.23.88s-.14.52-.24.83-.16.72-.23,1.19a.77.77,0,0,0,0,.15,12.13,12.13,0,0,1-1.77,2.55,5.32,5.32,0,0,1-2.23,1.66c-.46.06-.75,0-.87-.13a.92.92,0,0,1-.21-.42,3.91,3.91,0,0,1,0-.65,1.28,1.28,0,0,1,.2-.68l1.32-5c.43-1.26.85-2.59,1.26-4s.85-2.79,1.33-4.19,1-2.78,1.45-4.11.95-2.54,1.41-3.6l.36-1.06a2,2,0,0,0,0-.7c-.13-.92-1.18-1.24-3.14-1a4.32,4.32,0,0,0-3.63,2.4,21.46,21.46,0,0,0-1.5,4.11q-1.19,3.78-2.11,7.26c-.62,2.33-1.17,4.39-1.66,6.2l-.95,3.68a9,9,0,0,0-.28,3.4,2.67,2.67,0,0,0,1.59,2.44,14.21,14.21,0,0,0,1.93.59.65.65,0,0,0,.41,0l.19,0a1.88,1.88,0,0,1,.41,0,1.27,1.27,0,0,0,.39,0,8,8,0,0,0,4.34-2.05,18.61,18.61,0,0,0,1.69-1.76,2.27,2.27,0,0,0,1,1.24,5.64,5.64,0,0,0,2.07.82.59.59,0,0,0,.41.05l.19,0a7.32,7.32,0,0,0,4.63-1.74,17.46,17.46,0,0,0,2.09-2,3.84,3.84,0,0,0,1.07,2.1,2.7,2.7,0,0,0,2.31.69,1.73,1.73,0,0,0,1.08-.55,3.89,3.89,0,0,0,.61-1,4.16,4.16,0,0,0,.3-1.14,5,5,0,0,1,.2-1l.36-2.56a8.38,8.38,0,0,1,.32-1.24c.09-.35.19-.72.31-1.1s.21-.75.3-1.09l1-3.55,1.76-2.9c.68-1.13,1.38-2.3,2.12-3.5s1.47-2.36,2.19-3.46,1.33-2,1.84-2.66l.59-.78a1.65,1.65,0,0,1,.9-.73q.21,0,.24.27a3,3,0,0,1,0,.66,3.4,3.4,0,0,1-.43,1.21c-.16.29-.55,1.25-1.17,2.86s-1.24,3.48-1.89,5.58a65.7,65.7,0,0,0-1.63,6.39,16.52,16.52,0,0,0-.36,5.41,3.23,3.23,0,0,0,1.79,2.86,5.53,5.53,0,0,0,2.87.41,7.9,7.9,0,0,0,4.28-2,17.81,17.81,0,0,0,3.2-3.75c.39-.63.74-1.23,1.06-1.82a7.15,7.15,0,0,0,2.45,3.64,7.64,7.64,0,0,0,6,1.34c.33,0,.67-.11,1-.19s.73-.19,1.11-.31h.1a10.63,10.63,0,0,0,4.07-2.46,26.26,26.26,0,0,0,3.26-3.66c.28-.37.54-.74.78-1.1a9,9,0,0,0,2.42,3.57,7.49,7.49,0,0,0,6.35,1.74,9.48,9.48,0,0,0,3.11-1.08,8.75,8.75,0,0,0,2.83-2.44,11.64,11.64,0,0,0,1.83-3.81,12.36,12.36,0,0,0,.25-5.1,21,21,0,0,0-.86-3.74c-.4-1.25-.83-2.41-1.28-3.49s-.84-2-1.19-2.84-.58-1.42-.7-1.81a3,3,0,0,1-.22-.87,3.33,3.33,0,0,1,.28-1.95,1.53,1.53,0,0,1,1.13-1c.65-.09,1,.29,1.16,1.14a4.82,4.82,0,0,1,0,1.2,4.11,4.11,0,0,0,0,.91c.05.39.38.6,1,.61l.82,0a4.06,4.06,0,0,0,1-.74A2.18,2.18,0,0,0,212.15,199.3Zm-29.42,12.89q1-2.28,2.16-4.4a24.69,24.69,0,0,1,2.4-3.64,4.08,4.08,0,0,1,2.33-1.67.37.37,0,0,1,.31.06.21.21,0,0,0,.07.14.21.21,0,0,1,.07.14,6.28,6.28,0,0,1-.38,2,17.42,17.42,0,0,1-1.48,3.41,27.9,27.9,0,0,1-2.81,4,20.23,20.23,0,0,1-4.33,3.9C181.52,215.05,182.07,213.72,182.73,212.19Zm-38.86-10c-.25-.17-.5-.32-.74-.47-.41-.25-.82-.47-1.22-.67.52-.25,1.13-.53,1.81-.82,1.05-.44,2.28-.92,3.7-1.43-.23.76-.49,1.55-.78,2.36s-.55,1.63-.77,2.46C145.2,203.15,144.53,202.68,143.87,202.23Z" transform="translate(-85.11 -13.17)"/><path class="cls-1" d="M220.77,194.9a8.57,8.57,0,0,1,4.35-1.9,7.48,7.48,0,0,1,4.19.58,3.71,3.71,0,0,1,2.22,3.06,2.14,2.14,0,0,1-.66,2.09,4.09,4.09,0,0,1-1.05.75,6.11,6.11,0,0,0-.81,0c-.6,0-.93-.22-1-.62a5,5,0,0,1,0-.9,4.8,4.8,0,0,0,0-1.2c-.11-.86-.5-1.24-1.15-1.15a1.53,1.53,0,0,0-1.13,1,3.22,3.22,0,0,0-.28,1.94,2.64,2.64,0,0,0,.22.87c.12.39.35,1,.7,1.81l1.19,2.85c.45,1.07.87,2.23,1.28,3.48a22.16,22.16,0,0,1,.86,3.74,12.34,12.34,0,0,1-.25,5.1,11.27,11.27,0,0,1-1.84,3.81,8.5,8.5,0,0,1-2.82,2.44,9.11,9.11,0,0,1-3.11,1.08,7.52,7.52,0,0,1-6.35-1.73,9.67,9.67,0,0,1-3-6.1,9.29,9.29,0,0,1,.81-5.08,6.34,6.34,0,0,1,1.49-2,4.33,4.33,0,0,1,2.32-1,1.34,1.34,0,0,1,.35,0,1,1,0,0,0,.35,0l.83.19a8.4,8.4,0,0,1,1.93.93l.38.55.05.4a2,2,0,0,1-.16,1c-.15.36-.55,1.15-1.18,2.37-.13.55-.3,1.36-.52,2.43a8.09,8.09,0,0,0-.18,2.68c.11.85.38,1.35.8,1.49a2.67,2.67,0,0,0,.73.2c1-.14,1.72-1,2-2.58a17.13,17.13,0,0,0,0-5.41,29.38,29.38,0,0,0-2-7.8c-.87-2-1.32-3.05-1.33-3.18a.76.76,0,0,0-.09-.29.5.5,0,0,1-.09-.29,9.16,9.16,0,0,1,.09-2.62A5.13,5.13,0,0,1,220.77,194.9Z" transform="translate(-85.11 -13.17)"/><line class="cls-1" x1="19.19" y1="189.77" x2="22.53" y2="188.93"/><path class="cls-1" d="M148.77,248.09l-1.31-8.28,0,8.29h-.91l-.05-10.57h1.39l1.18,9,1-9h1.4l.05,10.57h-.91l0-8.29-1.23,8.3Z" transform="translate(-85.11 -13.17)"/><path class="cls-1" d="M156.19,245.67l-.25,2.39h-1l.37-3.28.8-6.07h1.42l.86,6.06.4,3.28h-1l-.27-2.39Zm1.35-.54-.68-6-.62,6Z" transform="translate(-85.11 -13.17)"/><path class="cls-1" d="M165.43,243.08l0,4.11c0,.62-.53.93-1.6.94s-1.6-.3-1.6-.92l0-7.69q0-.93,1.59-.93c1.07,0,1.61.3,1.61.91v2.16h-.95v-2.15c0-.26-.22-.39-.65-.39h0c-.43,0-.64.13-.64.4l0,7.69c0,.26.22.39.65.39s.65-.14.65-.4l0-3.58h-.54v-.53Z" transform="translate(-85.11 -13.17)"/><path class="cls-1" d="M170,245.59l-.24,2.4h-1l.37-3.28.8-6.07h1.41l.87,6.05.4,3.29h-1l-.27-2.39Zm1.36-.54-.69-6-.62,6Z" transform="translate(-85.11 -13.17)"/><path class="cls-1" d="M178.41,238.93l-1.6,8.49h1.71v.53h-2.8v-.33l1.6-8.49h-1.58v-.53h2.68Z" transform="translate(-85.11 -13.17)"/><path class="cls-1" d="M182,238.58H183l.05,9.35h-1Z" transform="translate(-85.11 -13.17)"/><path class="cls-1" d="M189.14,238.54h.91l0,9.35h-.61l-1.77-6.66,0,6.67h-.86l-.05-9.35h.62l1.71,6.68Z" transform="translate(-85.11 -13.17)"/><path class="cls-1" d="M193.88,238.51h2.86V239h-1.9l0,3.87h1.64v.54h-1.65l0,3.89h1.91v.52l-2.86,0Z" transform="translate(-85.11 -13.17)"/><path class="cls-1" d="M171.72,335.17s7,2,8.09-42.15l-8.38-6.1L163.12,293S164.8,333.06,171.72,335.17Z" transform="translate(-85.11 -13.17)"/><rect class="cls-1" x="138.47" y="74.22" width="61.58" height="6.89" transform="translate(-85.58 -12.14) rotate(-0.35)"/><path class="cls-1" d="M183.82,97.87c.6-7.16,10.23-11.64,15.16-14.26l-58.78.31s11.26,3.87,13.82,14" transform="translate(-85.11 -13.17)"/><path class="cls-1" d="M186.82,270.77a84.16,84.16,0,0,1-31.11,0l7.76,5.64-4.81,14.82,12.6-9.16,12.61,9.16-4.82-14.82Z" transform="translate(-85.11 -13.17)"/><path class="cls-1" d="M139.78,45.72s-6,14,4.73,25h11c-3.27-3.05-12.07-12.34-9.68-21.91,0,0,3.34-9.6-3.34-17.94,0,0,2.09,6.67-1.66,10.43,0,0-10.6,8.95-2.58,24.48A23.87,23.87,0,0,1,139.78,45.72Z" transform="translate(-85.11 -13.17)"/><path class="cls-1" d="M205.07,47.6c-4.8-6.89,0-11.69,0-11.69-6.26,2.51-5.63,8.14-5.63,8.14-2.5-.83-2.71-5.63-2.71-5.63-.63-7.3,3.75-9.6,3.75-9.6-1.67-.42-3.75,1.25-3.75,1.25-7.93,7.1-3.13,15.23-3.13,15.23,6,12-3.21,22.49-6.2,25.46h5.26c13.66-7.65,9.57-21.85,9.57-21.85a19.24,19.24,0,0,1-1.65,18.2C212.64,56.76,205.07,47.6,205.07,47.6Z" transform="translate(-85.11 -13.17)"/><path class="cls-1" d="M182.56,23.26c-4.5,6.5-8.66,16.87-9.19,33.17,0,0-13.42-30,20.26-43.07l.36-.18S175,12.42,164.75,33c.16-3.41.09-11.71-4.1-14.51,0,0,2.22,5.78-3.56,13.79,0,0-6.67,7.11-7.11,14.67,0,0-2,15.43,9.84,23.79h2c-2.43-2.16-15.05-14.82-3.31-36.63,0,0-9,27.08,10.43,36.63h7.14c13.66-7.65,9.57-21.85,9.57-21.85A19.63,19.63,0,0,1,181,70.76h1.29a19.68,19.68,0,0,0,5.14-5.31v0c.34-.4,9.38-11.69-4.16-30A13.77,13.77,0,0,1,182.56,23.26Z" transform="translate(-85.11 -13.17)"/></svg>